<svg width="32" height="32" viewBox="0 0 32 32" fill="none" xmlns="http://www.w3.org/2000/svg">
<path d="M16.0192 -2.80089e-06C8.56321 -1.49724e-06 1.91134 5.3524 0.351649 12.6409C-0.427585 16.2827 0.0973484 20.1552 1.83583 23.4505C3.509 26.6218 6.25204 29.1849 9.53389 30.6374C12.9476 32.1487 16.8666 32.412 20.4546 31.3814C23.9161 30.3875 26.9853 28.206 29.0748 25.2777C33.4436 19.1556 32.8595 10.556 27.7196 5.07029C24.7071 1.85534 20.4285 -3.57183e-06 16.0192 -2.80089e-06ZM23.705 16.8563L19.3374 21.3236C18.2316 22.4549 16.4837 20.741 17.585 19.615L19.7889 17.361L9.3449 17.361C8.60322 17.361 7.9844 16.7425 7.9844 16.0022C7.9844 15.2618 8.60362 14.6434 9.3449 14.6434L19.7366 14.6434L17.4891 12.3991C16.3723 11.2837 18.1038 9.55393 19.2207 10.6693L23.6948 15.1375C24.1691 15.6108 24.1736 16.3772 23.705 16.8563Z" fill="#B38265"/>
</svg>
