<svg width="33" height="33" viewBox="0 0 33 33" fill="none" xmlns="http://www.w3.org/2000/svg">
<path d="M16.539 32.5601C23.995 32.5601 30.6469 27.2077 32.2066 19.9192C32.9858 16.2774 32.4609 12.4049 30.7224 9.1096C29.0492 5.93828 26.3062 3.37521 23.0243 1.92265C19.6106 0.411387 15.6916 0.148028 12.1036 1.17864C8.64217 2.17256 5.57298 4.35404 3.48346 7.28239C-0.885404 13.4045 -0.301284 22.004 4.83865 27.4898C7.85109 30.7047 12.1297 32.5601 16.539 32.5601ZM8.8532 15.7038L13.2208 11.2365C14.3266 10.1052 16.0745 11.819 14.9732 12.945L12.7694 15.1991L23.2133 15.1991C23.955 15.1991 24.5738 15.8175 24.5738 16.5579C24.5738 17.2982 23.9546 17.9167 23.2133 17.9167L12.8216 17.9167L15.0691 20.1609C16.1859 21.2763 14.4544 23.0061 13.3376 21.8907L8.8634 17.4226C8.38909 16.9493 8.3846 16.1828 8.8532 15.7038Z" fill="#B38265"/>
</svg>
