<svg width="25" height="25" viewBox="0 0 25 25" fill="none" xmlns="http://www.w3.org/2000/svg">
<path d="M12.5438 24.5601C18.1358 24.5601 23.1247 20.5407 24.2945 15.0675C24.8789 12.3327 24.4852 9.42467 23.1814 6.95012C21.9265 4.56863 19.8692 2.64391 17.4078 1.55313C14.8475 0.418255 11.9083 0.220487 9.21727 0.994416C6.62118 1.74079 4.3193 3.37896 2.75215 5.57798C-0.524494 10.1753 -0.0864044 16.6331 3.76854 20.7526C6.02788 23.1668 9.23686 24.5601 12.5438 24.5601ZM6.77946 11.902L10.0552 8.54726C10.8845 7.69772 12.1954 8.98474 11.3695 9.83031L9.71659 11.523L17.5496 11.523C18.1058 11.523 18.5699 11.9874 18.5699 12.5433C18.5699 13.0993 18.1055 13.5637 17.5496 13.5637L9.75578 13.5637L11.4414 15.249C12.279 16.0866 10.9803 17.3856 10.1427 16.548L6.78711 13.1927C6.43137 12.8372 6.428 12.2617 6.77946 11.902Z" fill="#B38265"/>
</svg>
