<svg width="13" height="13" viewBox="0 0 13 13" fill="none" xmlns="http://www.w3.org/2000/svg">
<path d="M4.37425 11.2749C4.04168 11.9897 3.50445 12.2066 2.76256 11.9258C2.14858 11.6706 1.84159 11.2749 1.84159 10.7389C1.86718 10.4071 2.00788 10.1263 2.2637 9.89655L5.33359 6.87176L1.30436 6.14428C0.562474 6.09323 0.178739 5.74863 0.153156 5.11049C0.101991 4.5234 0.332233 4.10223 0.843881 3.84697C1.17645 3.69382 1.5474 3.71934 1.95671 3.92355L5.6022 5.79968L4.87311 1.70282C4.77078 1.21783 4.83473 0.834944 5.06497 0.554161C5.3208 0.247854 5.70453 0.0819376 6.21618 0.0564123C6.70225 0.0308855 7.0604 0.171276 7.29064 0.477585C7.54647 0.783893 7.61042 1.1923 7.48251 1.70282L6.71504 5.79968L10.3222 3.92355C11.0129 3.54066 11.5373 3.65553 11.8955 4.26814C12.2536 4.85523 12.228 5.36575 11.8187 5.79968C11.6396 6.00389 11.371 6.11875 11.0129 6.14428L7.02203 6.87176L10.0919 9.93484C10.6291 10.4454 10.6419 10.9814 10.1303 11.543C9.6698 12.0535 9.15816 12.1811 8.59534 11.9258C8.31394 11.7982 8.09649 11.5557 7.94299 11.1984L6.17781 7.48438L4.37425 11.2749Z" fill="#4B4B4B"/>
</svg>
