<svg width="16" height="16" viewBox="0 0 16 16" fill="none" xmlns="http://www.w3.org/2000/svg">
<path d="M15.4129 0.546164C15.0644 0.197674 14.5918 0.00191437 14.099 0.00191437C13.6063 0.00191437 13.1337 0.197674 12.7851 0.546164L7.97941 5.35426L3.18169 0.546164C3.00862 0.373009 2.80315 0.235654 2.57703 0.141943C2.3509 0.048232 2.10854 1.82449e-09 1.86379 0C1.61903 -1.82448e-09 1.37667 0.048232 1.15055 0.141943C0.924423 0.235654 0.71896 0.373009 0.545891 0.546164C0.372823 0.719319 0.235536 0.924884 0.141872 1.15112C0.0482079 1.37736 -1.82358e-09 1.61984 0 1.86472C1.82358e-09 2.1096 0.0482079 2.35208 0.141872 2.57831C0.235536 2.80455 0.372823 3.01012 0.545891 3.18327L5.35159 7.99137L0.545891 12.7915C0.373347 12.9646 0.236579 13.1701 0.143399 13.3961C0.0502188 13.6222 0.0024499 13.8644 0.00282029 14.1089C0.00319068 14.3534 0.0516928 14.5954 0.145557 14.8212C0.239422 15.0469 0.376811 15.252 0.54988 15.4246C0.722948 15.5972 0.928307 15.7341 1.15423 15.8273C1.38016 15.9205 1.62222 15.9683 1.86661 15.9679C2.11099 15.9676 2.35291 15.919 2.57856 15.8251C2.8042 15.7312 3.00914 15.5938 3.18169 15.4206L7.98739 10.6125L12.7931 15.4206C12.9639 15.6007 13.1691 15.7447 13.3965 15.8442C13.6239 15.9437 13.8689 15.9966 14.117 15.9998C14.3652 16.0031 14.6115 15.9566 14.8413 15.863C15.0712 15.7695 15.2801 15.6309 15.4556 15.4553C15.6311 15.2797 15.7696 15.0708 15.8631 14.8408C15.9566 14.6108 16.0031 14.3644 15.9998 14.1161C15.9966 13.8678 15.9437 13.6227 15.8443 13.3952C15.7449 13.1677 15.6009 12.9624 15.4209 12.7915L10.6152 7.98339L15.4129 3.18327C15.5866 3.01045 15.7244 2.805 15.8184 2.57871C15.9125 2.35243 15.9609 2.10978 15.9609 1.86472C15.9609 1.61965 15.9125 1.37701 15.8184 1.15072C15.7244 0.924438 15.5866 0.718982 15.4129 0.546164Z" fill="#FFFAF2"/>
</svg>
