<svg width="10" height="10" viewBox="0 0 10 10" fill="none" xmlns="http://www.w3.org/2000/svg">
<path d="M9.63308 0.341352C9.41523 0.123546 9.11986 0.00119648 8.81188 0.00119648C8.50391 0.00119648 8.20854 0.123546 7.99069 0.341352L4.98713 3.34641L1.98855 0.341352C1.88039 0.23313 1.75197 0.147284 1.61064 0.0887143C1.46931 0.030145 1.31784 1.1403e-09 1.16487 0C1.01189 -1.1403e-09 0.860421 0.030145 0.719093 0.0887143C0.577764 0.147284 0.44935 0.23313 0.341182 0.341352C0.233014 0.449574 0.14721 0.578052 0.0886701 0.719451C0.03013 0.86085 -1.13974e-09 1.0124 0 1.16545C1.13974e-09 1.3185 0.03013 1.47005 0.0886701 1.61145C0.14721 1.75285 0.233014 1.88132 0.341182 1.98955L3.34474 4.99461L0.341182 7.99468C0.233342 8.1029 0.147862 8.23131 0.0896244 8.37259C0.0313868 8.51386 0.00153119 8.66523 0.00176268 8.81804C0.00199418 8.97086 0.032308 9.12214 0.0909734 9.26323C0.149639 9.40433 0.235507 9.53248 0.343675 9.64038C0.451843 9.74827 0.580192 9.83379 0.721395 9.89206C0.862598 9.95033 1.01389 9.9802 1.16663 9.97996C1.31937 9.97973 1.47057 9.9494 1.6116 9.89071C1.75262 9.83202 1.88071 9.7461 1.98855 9.63788L4.99212 6.63282L7.99568 9.63788C8.10246 9.75043 8.23069 9.84045 8.37281 9.90263C8.51492 9.96481 8.66804 9.99788 8.82313 9.9999C8.97823 10.0019 9.13216 9.97285 9.27584 9.9144C9.41953 9.85595 9.55006 9.7693 9.65973 9.65957C9.76941 9.54983 9.85602 9.41924 9.91444 9.27548C9.97286 9.13172 10.0019 8.97772 9.9999 8.82255C9.99788 8.66738 9.96482 8.51418 9.90268 8.37199C9.84054 8.22981 9.75056 8.10151 9.63806 7.99468L6.6345 4.98962L9.63308 1.98955C9.74162 1.88153 9.82775 1.75312 9.88653 1.6117C9.94531 1.47027 9.97556 1.31861 9.97556 1.16545C9.97556 1.01228 9.94531 0.860628 9.88653 0.719201C9.82775 0.577774 9.74162 0.449364 9.63308 0.341352Z" fill="#FFFAF2"/>
</svg>
