<svg id="facebook" xmlns="http://www.w3.org/2000/svg" width="28" height="28" viewBox="0 0 28 28">
  <g id="Grupo_190" data-name="Grupo 190">
    <path id="Caminho_159" data-name="Caminho 159" d="M24.719,0H3.281A3.285,3.285,0,0,0,0,3.281V24.719A3.285,3.285,0,0,0,3.281,28H24.719A3.285,3.285,0,0,0,28,24.719V3.281A3.285,3.285,0,0,0,24.719,0Zm1.094,24.719a1.1,1.1,0,0,1-1.094,1.094H18.484V16.9h3.379l.558-3.391H18.484V11.156a1.613,1.613,0,0,1,1.641-1.641h2.242V6.125H20.125a5.03,5.03,0,0,0-5.03,5.041v2.342H11.813V16.9h3.282v8.914H3.281a1.1,1.1,0,0,1-1.094-1.094V3.281A1.1,1.1,0,0,1,3.281,2.188H24.719a1.1,1.1,0,0,1,1.094,1.094Z" fill="#8d5d40"/>
  </g>
</svg>
