<svg xmlns="http://www.w3.org/2000/svg" width="28" height="28" viewBox="0 0 28 28">
  <g id="instagram" transform="translate(-0.449)">
    <path id="Caminho_154" data-name="Caminho 154" d="M28.378,8.232a10.229,10.229,0,0,0-.651-3.4,7.173,7.173,0,0,0-4.1-4.1,10.261,10.261,0,0,0-3.4-.651C18.733.016,18.257,0,14.455,0S10.176.016,8.683.082a10.238,10.238,0,0,0-3.4.651A6.833,6.833,0,0,0,2.8,2.352,6.894,6.894,0,0,0,1.188,4.83a10.257,10.257,0,0,0-.651,3.4C.466,9.725.449,10.2.449,14s.016,4.277.082,5.771a10.229,10.229,0,0,0,.651,3.4,7.172,7.172,0,0,0,4.1,4.1,10.263,10.263,0,0,0,3.4.651c1.493.066,1.97.082,5.772.082s4.278-.016,5.772-.082a10.232,10.232,0,0,0,3.4-.651,7.163,7.163,0,0,0,4.1-4.1,10.264,10.264,0,0,0,.651-3.4c.066-1.493.082-1.969.082-5.771S28.444,9.725,28.378,8.232ZM25.856,19.664a7.673,7.673,0,0,1-.481,2.6,4.645,4.645,0,0,1-2.659,2.658,7.7,7.7,0,0,1-2.6.481c-1.477.066-1.92.082-5.657.082S10.275,25.468,8.8,25.4a7.673,7.673,0,0,1-2.6-.481A4.31,4.31,0,0,1,4.6,23.876a4.353,4.353,0,0,1-1.045-1.608,7.7,7.7,0,0,1-.481-2.6c-.066-1.477-.082-1.92-.082-5.656S3,9.829,3.07,8.358a7.669,7.669,0,0,1,.481-2.6A4.256,4.256,0,0,1,4.6,4.152,4.347,4.347,0,0,1,6.21,3.107a7.71,7.71,0,0,1,2.6-.481c1.477-.066,1.92-.082,5.657-.082s4.185.016,5.657.082a7.677,7.677,0,0,1,2.6.481A4.306,4.306,0,0,1,24.33,4.152,4.352,4.352,0,0,1,25.375,5.76a7.7,7.7,0,0,1,.481,2.6c.066,1.477.082,1.92.082,5.656S25.922,18.187,25.856,19.664Zm0,0" transform="translate(0)" fill="#8d5d40"/>
    <path id="Caminho_155" data-name="Caminho 155" d="M132.143,124.5a7.193,7.193,0,1,0,7.194,7.193A7.2,7.2,0,0,0,132.143,124.5Zm0,11.859a4.666,4.666,0,1,1,4.667-4.666A4.667,4.667,0,0,1,132.143,136.359Zm0,0" transform="translate(-117.689 -117.69)" fill="#8d5d40"/>
    <path id="Caminho_156" data-name="Caminho 156" d="M365.809,90.281a1.68,1.68,0,1,1-1.68-1.679A1.68,1.68,0,0,1,365.809,90.281Zm0,0" transform="translate(-342.195 -83.755)" fill="#8d5d40"/>
  </g>
</svg>
