<svg id="menu-burger" xmlns="http://www.w3.org/2000/svg" width="24" height="17" viewBox="0 0 24 17">
  <path id="Caminho_4549" data-name="Caminho 4549" d="M22.5,224H1.5a1.61,1.61,0,0,0,0,3.213h21a1.61,1.61,0,0,0,0-3.213Z" transform="translate(0 -217.106)" fill="#eff6fd"/>
  <path id="Caminho_4550" data-name="Caminho 4550" d="M1.5,77.88h21a1.61,1.61,0,0,0,0-3.213H1.5a1.61,1.61,0,0,0,0,3.213Z" transform="translate(0 -74.667)" fill="#eff6fd"/>
  <path id="Caminho_4551" data-name="Caminho 4551" d="M22.5,373.333H1.5a1.61,1.61,0,0,0,0,3.213h21a1.61,1.61,0,0,0,0-3.213Z" transform="translate(0 -359.546)" fill="#eff6fd"/>
</svg>
