<svg xmlns="http://www.w3.org/2000/svg" width="32" height="32.001" viewBox="0 0 32 32.001">
  <g id="whatsapp" transform="translate(0 0)">
    <path id="Caminho_157" data-name="Caminho 157" d="M21.351,16.959l-.012.1C18.407,15.6,18.1,15.4,17.721,15.971c-.263.393-1.028,1.285-1.259,1.549s-.465.28-.861.1a10.821,10.821,0,0,1-3.2-1.98,12.1,12.1,0,0,1-2.213-2.76c-.391-.675.427-.771,1.171-2.179a.733.733,0,0,0-.033-.7c-.1-.2-.9-2.16-1.229-2.941s-.649-.68-.9-.68a1.985,1.985,0,0,0-1.824.459c-2.152,2.365-1.609,4.805.232,7.4,3.619,4.736,5.547,5.608,9.072,6.819a5.516,5.516,0,0,0,2.507.161,4.1,4.1,0,0,0,2.688-1.9,3.3,3.3,0,0,0,.24-1.9C22.012,17.239,21.751,17.139,21.351,16.959Z" transform="translate(1.992 2.118)" fill="#8d5d40"/>
    <path id="Caminho_158" data-name="Caminho 158" d="M27.36,4.6C17.108-5.312.141,1.876.135,15.857a15.781,15.781,0,0,0,2.127,7.927L0,32l8.447-2.2A15.961,15.961,0,0,0,32,15.865,15.726,15.726,0,0,0,27.34,4.651Zm1.976,11.223A13.275,13.275,0,0,1,9.32,27.16l-.48-.285-5,1.3,1.34-4.86-.319-.5A13.224,13.224,0,0,1,25.457,6.5a13.051,13.051,0,0,1,3.879,9.32Z" transform="translate(0 0)" fill="#8d5d40"/>
  </g>
</svg>
