<svg width="33" height="33" viewBox="0 0 33 33" fill="none" xmlns="http://www.w3.org/2000/svg">
<path d="M23.5975 19.2952L23.5855 19.3952C20.6535 17.9362 20.3465 17.7362 19.9675 18.3072C19.7045 18.7002 18.9395 19.5922 18.7085 19.8562C18.4775 20.1202 18.2435 20.1362 17.8475 19.9562C16.6734 19.4882 15.5903 18.818 14.6475 17.9762C13.7786 17.1696 13.033 16.2397 12.4345 15.2162C12.0435 14.5412 12.8615 14.4452 13.6055 13.0372C13.6589 12.9271 13.6838 12.8053 13.6781 12.683C13.6723 12.5608 13.636 12.4419 13.5725 12.3373C13.4725 12.1373 12.6725 10.1773 12.3435 9.39627C12.0145 8.61527 11.6945 8.71627 11.4435 8.71627C11.1252 8.636 10.792 8.63592 10.4737 8.71602C10.1554 8.79612 9.86188 8.95391 9.6195 9.17527C7.4675 11.5403 8.0105 13.9802 9.8515 16.5752C13.4705 21.3112 15.3985 22.1832 18.9235 23.3942C19.7357 23.64 20.5936 23.6951 21.4305 23.5552C21.9855 23.4414 22.5109 23.2138 22.9736 22.8868C23.4362 22.5598 23.826 22.1404 24.1185 21.6552C24.3846 21.0595 24.4681 20.3983 24.3585 19.7552C24.2585 19.5752 23.9975 19.4752 23.5975 19.2952Z" fill="#8D5D40"/>
<path d="M27.6145 4.81841C17.3625 -5.09354 0.395517 2.09442 0.389517 16.0753C0.386967 18.859 1.12079 21.5938 2.51652 24.0023L0.254517 32.2183L8.70152 30.0183C11.125 31.3289 13.8465 31.9898 16.6012 31.9367C19.3559 31.8837 22.0499 31.1184 24.4212 29.7155C26.7924 28.3126 28.7601 26.3197 30.1328 23.9309C31.5055 21.542 32.2365 18.8385 32.2545 16.0833C32.2599 13.9986 31.8506 11.9336 31.0506 10.0084C30.2506 8.08327 29.0758 6.3364 27.5945 4.86941L27.6145 4.81841ZM29.5905 16.0413C29.5731 18.3733 28.9418 20.6596 27.7599 22.67C26.5781 24.6804 24.8875 26.344 22.8583 27.4933C20.8291 28.6426 18.5329 29.2371 16.201 29.2169C13.869 29.1967 11.5835 28.5626 9.57452 27.3783L9.09452 27.0933L4.09452 28.3933L5.43452 23.5333L5.11552 23.0333C3.40387 20.2756 2.76619 16.9847 3.32391 13.7873C3.88163 10.5899 5.5958 7.70921 8.14 5.69384C10.6842 3.67848 13.8808 2.66917 17.121 2.85809C20.3612 3.04702 23.4188 4.421 25.7115 6.7184C26.9446 7.93648 27.9226 9.38796 28.5886 10.9881C29.2546 12.5883 29.5952 14.3051 29.5905 16.0383V16.0413Z" fill="#8D5D40"/>
</svg>
