<svg xmlns="http://www.w3.org/2000/svg" width="266.055" height="90.233" viewBox="0 0 266.055 90.233">
  <g id="Grupo_176" data-name="Grupo 176" transform="translate(-322.142 -38)">
    <g id="Grupo_175" data-name="Grupo 175" transform="translate(322.142 38)">
      <text id="papel_" data-name="papel &amp;" transform="translate(184.895 45.841)" fill="#5b5b5b" font-size="20" font-family="OggLight, Ogg"><tspan x="0" y="0" letter-spacing="-0.003em">p</tspan><tspan y="0" letter-spacing="0.005em">a</tspan><tspan y="0" letter-spacing="0.02em">p</tspan><tspan y="0" letter-spacing="0.012em">e</tspan><tspan y="0" letter-spacing="0.009em">l</tspan><tspan y="0" letter-spacing="0.01em"> </tspan><tspan y="0">&amp;</tspan></text>
      <text id="convites" transform="translate(197.055 64.42)" fill="#5b5b5b" font-size="19" font-family="OggLight, Ogg"><tspan x="0" y="0" letter-spacing="-0.029em">c</tspan><tspan y="0" letter-spacing="0.009em">o</tspan><tspan y="0" letter-spacing="-0.018em">n</tspan><tspan y="0" letter-spacing="0.024em">v</tspan><tspan y="0" letter-spacing="0.007em">i</tspan><tspan y="0" letter-spacing="-0.024em">t</tspan><tspan y="0" letter-spacing="0.027em">e</tspan><tspan y="0">s</tspan></text>
      <text id="of_ce" data-name="ofﬁce" transform="translate(38.557 64.233)" fill="#5b5b5b" font-size="59" font-family="OggLight, Ogg"><tspan x="0" y="0" letter-spacing="-0.005em">o</tspan><tspan y="0">f</tspan><tspan y="0" letter-spacing="-0.002em">ﬁ</tspan><tspan y="0" letter-spacing="-0.039em">c</tspan><tspan y="0">e</tspan></text>
      <path id="Caminho_7" data-name="Caminho 7" d="M609.332,718.313c-4.361-.013-8.635,2.128-12.551,5.586a22.919,22.919,0,0,1-5.469-5.307,11.716,11.716,0,0,1-.928-1.571,10.154,10.154,0,0,0,3.586.065,8.618,8.618,0,0,0,6.509-5.17,4.853,4.853,0,0,0,.22-3.472,3.347,3.347,0,0,0-2.024-1.955c-3.053-1.176-7.886.774-9.518,5.021a6.148,6.148,0,0,0-.394,3.991,12.482,12.482,0,0,1-4.191-2.606,10.482,10.482,0,0,0,2.463-7.4c-.126-3.741-1.382-6.222-3.191-6.321l-.088,0-.035,0c-1.817.111-3.071,2.593-3.2,6.317a10.5,10.5,0,0,0,2.465,7.409,12.5,12.5,0,0,1-4.189,2.6,6.087,6.087,0,0,0-.384-3.957c-1.645-4.277-6.475-6.229-9.532-5.054a3.352,3.352,0,0,0-2.025,1.955,4.9,4.9,0,0,0,.236,3.507,8.6,8.6,0,0,0,6.493,5.135,10.236,10.236,0,0,0,3.587-.065,11.82,11.82,0,0,1-.927,1.571,22.714,22.714,0,0,1-5.3,5.186c-4.4-3.606-8.9-5.465-12.587-5.465h-.105c-5.039-.172-6.956,2.317-7.071,4.72-.147,3.1,2.639,6.581,7.012,6.837,3.09.244,8.257-1.717,12.681-4.759a50.393,50.393,0,0,1,12.794,18.943l.483,1.266.484-1.266c2.687-7.021,7.078-14.076,12.2-18.838,4.387,2.981,9.457,4.892,12.519,4.655,4.383-.258,7.169-3.743,7.022-6.838-.114-2.4-2.031-4.907-7.047-4.72m-51.068,10.523c-3.771-.221-6.17-3.154-6.047-5.755.113-2.362,2.166-3.741,5.544-3.741.157,0,.317,0,.478.009,3.948-.05,8.033,1.917,11.812,5.054-4.158,2.806-8.958,4.638-11.787,4.432m31.848-16.921c1.556-4.046,5.892-5.343,8.192-4.459a2.369,2.369,0,0,1,1.425,1.352,3.837,3.837,0,0,1-.2,2.7,7.642,7.642,0,0,1-5.73,4.557,9.415,9.415,0,0,1-3.875-.2,5.318,5.318,0,0,1,.19-3.946m-8.551-6.39c.115-3.411,1.2-5.258,2.217-5.321,1.018.055,2.108,1.9,2.221,5.327a9.474,9.474,0,0,1-2.219,6.7,9.489,9.489,0,0,1-2.219-6.7m-7.8,10.538a7.623,7.623,0,0,1-5.714-4.521,3.875,3.875,0,0,1-.217-2.734,2.367,2.367,0,0,1,1.424-1.352,4.383,4.383,0,0,1,1.565-.264,7.325,7.325,0,0,1,6.642,4.757,5.263,5.263,0,0,1,.178,3.912,9.429,9.429,0,0,1-3.878.2m10.392,26.4a47.748,47.748,0,0,0-12.386-17.987,23.469,23.469,0,0,0,5.333-5.291,11.76,11.76,0,0,0,1.332-2.471,13.46,13.46,0,0,0,5.346-3.14,13.459,13.459,0,0,0,5.348,3.14,11.7,11.7,0,0,0,1.331,2.471,23.716,23.716,0,0,0,5.532,5.438,52.532,52.532,0,0,0-11.837,17.841m25.134-13.624c-2.793.205-7.52-1.586-11.646-4.344,3.64-3.164,7.614-5.144,11.589-5.144h.115c3.623-.147,5.88,1.259,6,3.732.124,2.6-2.276,5.533-6.056,5.756" transform="translate(-551.176 -699.167)" fill="#5b5b5b"/>
    </g>
  </g>
</svg>
