<svg width="193" height="48" viewBox="0 0 193 48" fill="none" xmlns="http://www.w3.org/2000/svg">
<path d="M141.198 33.0702C140.81 33.4607 140.354 33.7762 139.852 34.001C139.38 34.218 138.867 34.3321 138.347 34.3355C137.994 34.3362 137.642 34.2922 137.3 34.2046C136.96 34.1168 136.632 33.9848 136.326 33.8119V38.015H137.475C137.533 38.015 137.562 38.0368 137.562 38.0804C137.562 38.124 137.533 38.1459 137.475 38.1459H137.336C137.264 38.1459 137.111 38.141 136.878 38.1313C136.52 38.1313 136.267 38.1289 136.122 38.124C135.977 38.1192 135.88 38.1168 135.831 38.1168H135.693C135.63 38.1168 135.516 38.1216 135.351 38.1313C135.089 38.141 134.896 38.1459 134.77 38.1459H134.45C134.391 38.1459 134.362 38.124 134.362 38.0804C134.362 38.0368 134.391 38.015 134.45 38.015C134.954 38.015 135.259 37.9277 135.366 37.7532C135.514 37.2885 135.568 36.7992 135.526 36.3134V28.4163C135.53 28.2314 135.518 28.0465 135.489 27.8637C135.476 27.7614 135.433 27.6653 135.366 27.5874C135.297 27.5354 135.212 27.5097 135.126 27.5146C134.932 27.5299 134.739 27.564 134.551 27.6164C134.493 27.6261 134.462 27.6092 134.457 27.5655C134.452 27.5219 134.479 27.4953 134.537 27.4856C134.776 27.4381 135.01 27.3675 135.235 27.2747C135.549 27.1327 135.85 26.9649 136.137 26.7729C136.156 26.7535 136.192 26.7535 136.246 26.7729C136.299 26.7923 136.326 26.8166 136.326 26.8456V28.3291C136.699 27.8531 137.167 27.4594 137.7 27.1729C138.195 26.9098 138.747 26.7725 139.307 26.7729C139.723 26.7662 140.135 26.8498 140.516 27.018C140.896 27.1863 141.236 27.4351 141.51 27.7473C142.114 28.4152 142.434 29.2911 142.405 30.1906C142.406 30.7203 142.299 31.2447 142.092 31.7322C141.881 32.2306 141.578 32.6846 141.198 33.0702ZM141.619 30.656C141.652 29.7691 141.377 28.8982 140.841 28.1909C140.603 27.8768 140.294 27.6239 139.938 27.4531C139.583 27.2824 139.192 27.1988 138.798 27.2092C138.331 27.2095 137.872 27.3244 137.46 27.5437C137.021 27.7772 136.635 28.0991 136.326 28.489V32.9684C136.731 33.2918 137.179 33.5585 137.656 33.761C138.046 33.9241 138.463 34.0105 138.885 34.0155C139.264 34.0262 139.64 33.9483 139.984 33.788C140.327 33.6276 140.628 33.3893 140.863 33.092C141.394 32.3944 141.662 31.5317 141.619 30.656ZM148.179 31.9504C147.858 32.5627 147.412 33.1004 146.87 33.5283C146.403 33.9989 145.785 34.2899 145.124 34.35C144.621 34.3706 144.128 34.202 143.743 33.8774C143.57 33.7324 143.433 33.5507 143.34 33.3456C143.247 33.1405 143.2 32.9173 143.205 32.6921C143.217 32.3938 143.297 32.1023 143.438 31.8392C143.579 31.5761 143.778 31.3481 144.019 31.1723C144.798 30.5834 145.668 30.1242 146.593 29.8125L148.28 29.1726C148.307 28.5599 148.153 27.9528 147.837 27.4274C147.675 27.242 147.471 27.0978 147.242 27.0067C147.013 26.9157 146.766 26.8804 146.521 26.9038C146.329 26.9022 146.138 26.9267 145.953 26.9765C145.767 27.0299 145.586 27.103 145.415 27.1947C145.264 27.2969 145.125 27.4165 145.001 27.551C144.795 27.805 144.617 28.0805 144.47 28.3727C144.409 28.4902 144.319 28.5903 144.208 28.6636C144.095 28.7177 143.97 28.7427 143.845 28.7363C143.728 28.7435 143.611 28.7157 143.51 28.6563C143.474 28.6341 143.445 28.6031 143.424 28.5661C143.404 28.5292 143.393 28.4876 143.394 28.4454C143.401 28.3386 143.442 28.2369 143.51 28.1546C143.606 28.0289 143.719 27.9164 143.845 27.8201C144.258 27.5098 144.713 27.26 145.197 27.0783C145.654 26.8885 146.142 26.7849 146.637 26.7729C146.968 26.7517 147.3 26.7981 147.612 26.9094C147.925 27.0207 148.212 27.1944 148.455 27.4201C148.68 27.6709 148.852 27.9642 148.962 28.2826C149.072 28.601 149.117 28.9383 149.095 29.2744C149.095 29.4877 149.09 29.7349 149.08 30.0161C149.071 30.2973 149.056 30.7336 149.037 31.325C149.007 31.8098 148.991 32.154 148.986 32.3576C148.981 32.5612 148.978 32.7309 148.978 32.8666C148.964 33.1401 149.001 33.4139 149.087 33.6738C149.108 33.7453 149.151 33.8085 149.21 33.8542C149.269 33.8999 149.34 33.9258 149.415 33.9283C149.607 33.8982 149.781 33.7969 149.902 33.6447C150.078 33.4754 150.215 33.2693 150.302 33.0411C150.305 33.0268 150.312 33.0135 150.322 33.0027C150.332 32.9919 150.344 32.9838 150.358 32.9794C150.372 32.975 150.387 32.9743 150.402 32.9775C150.416 32.9807 150.429 32.9876 150.44 32.9975C150.454 33.0043 150.467 33.0143 150.477 33.0266C150.486 33.0389 150.493 33.0533 150.497 33.0687C150.5 33.0841 150.5 33.1001 150.497 33.1154C150.493 33.1308 150.486 33.1452 150.476 33.1575C150.257 33.4556 149.997 33.7222 149.706 33.9501C149.487 34.1612 149.207 34.2964 148.906 34.3355C148.794 34.3431 148.681 34.3233 148.579 34.2777C148.476 34.2321 148.386 34.162 148.317 34.0737C148.171 33.8443 148.102 33.5742 148.12 33.3029C148.12 33.1187 148.125 32.8908 148.135 32.6194C148.145 32.3479 148.159 32.1249 148.179 31.9504ZM144.005 32.343C144 32.5482 144.04 32.7519 144.121 32.9402C144.203 33.1284 144.324 33.2968 144.477 33.4338C144.801 33.7278 145.226 33.8843 145.663 33.8701C145.913 33.8624 146.158 33.7925 146.375 33.6665C146.66 33.5064 146.924 33.311 147.16 33.0848C147.406 32.8484 147.63 32.5904 147.829 32.314C147.984 32.1217 148.107 31.9056 148.193 31.674C148.212 31.4317 148.232 31.0899 148.251 30.6487C148.271 30.2076 148.28 29.8173 148.28 29.478V29.2744L146.579 29.9579C145.837 30.2121 145.146 30.5935 144.535 31.085C144.364 31.2462 144.229 31.4414 144.137 31.658C144.046 31.8746 144.001 32.108 144.005 32.343ZM156.934 33.0702C156.546 33.4607 156.09 33.7762 155.588 34.001C155.116 34.218 154.603 34.3321 154.083 34.3355C153.73 34.3362 153.378 34.2922 153.036 34.2046C152.695 34.1168 152.368 33.9848 152.062 33.8119V38.015H153.211C153.269 38.015 153.298 38.0368 153.298 38.0804C153.298 38.124 153.269 38.1459 153.211 38.1459H153.072C153 38.1459 152.847 38.141 152.614 38.1313C152.256 38.1313 152.003 38.1289 151.858 38.124C151.713 38.1192 151.616 38.1168 151.567 38.1168H151.429C151.366 38.1168 151.252 38.1216 151.087 38.1313C150.825 38.141 150.631 38.1459 150.505 38.1459H150.186C150.127 38.1459 150.098 38.124 150.098 38.0804C150.098 38.0368 150.127 38.015 150.186 38.015C150.69 38.015 150.995 37.9277 151.102 37.7532C151.25 37.2885 151.304 36.7992 151.262 36.3134V28.4163C151.266 28.2314 151.254 28.0465 151.225 27.8637C151.212 27.7614 151.169 27.6653 151.102 27.5874C151.033 27.5354 150.948 27.5097 150.862 27.5146C150.667 27.5299 150.475 27.564 150.287 27.6164C150.229 27.6261 150.198 27.6092 150.193 27.5655C150.188 27.5219 150.215 27.4953 150.273 27.4856C150.512 27.4381 150.746 27.3675 150.971 27.2747C151.285 27.1327 151.586 26.9649 151.873 26.7729C151.892 26.7535 151.928 26.7535 151.982 26.7729C152.035 26.7923 152.062 26.8166 152.062 26.8456V28.3291C152.435 27.8531 152.903 27.4594 153.436 27.1729C153.931 26.9098 154.483 26.7725 155.043 26.7729C155.459 26.7662 155.871 26.8498 156.252 27.018C156.632 27.1863 156.971 27.4351 157.246 27.7473C157.85 28.4152 158.17 29.2911 158.141 30.1906C158.142 30.7203 158.035 31.2447 157.828 31.7322C157.617 32.2306 157.314 32.6846 156.934 33.0702ZM157.355 30.656C157.388 29.7691 157.113 28.8982 156.577 28.1909C156.339 27.8768 156.03 27.6239 155.674 27.4531C155.319 27.2824 154.928 27.1988 154.534 27.2092C154.067 27.2095 153.608 27.3244 153.196 27.5437C152.757 27.7772 152.37 28.0991 152.062 28.489V32.9684C152.467 33.2918 152.915 33.5585 153.392 33.761C153.782 33.9241 154.199 34.0105 154.621 34.0155C155 34.0262 155.376 33.9483 155.72 33.788C156.063 33.6276 156.364 33.3893 156.599 33.092C157.13 32.3944 157.398 31.5317 157.355 30.656ZM165.514 33.6665C165.188 33.8831 164.833 34.052 164.46 34.1682C164.095 34.28 163.715 34.3364 163.333 34.3355C162.844 34.3588 162.355 34.2853 161.895 34.1193C161.434 33.9534 161.011 33.6982 160.649 33.3684C160.312 33.04 160.048 32.6444 159.874 32.2071C159.7 31.7698 159.62 31.3008 159.639 30.8305C159.634 30.2988 159.738 29.7717 159.945 29.2816C160.151 28.7915 160.455 28.3486 160.839 27.98C161.195 27.5987 161.627 27.2948 162.106 27.0871C162.585 26.8795 163.101 26.7725 163.624 26.7729C164.299 26.7332 164.967 26.9285 165.514 27.3256C165.722 27.4727 165.89 27.6696 166.001 27.8983C166.113 28.127 166.166 28.3802 166.154 28.6345C166.155 28.7139 166.138 28.7925 166.104 28.8643C166.07 28.9361 166.02 28.9992 165.958 29.049C165.796 29.1524 165.604 29.2009 165.412 29.1871H160.497C160.437 29.3867 160.396 29.5911 160.373 29.798C160.348 30.0201 160.336 30.2434 160.337 30.4669C160.327 30.9032 160.409 31.3367 160.578 31.739C160.747 32.1412 161 32.5032 161.318 32.8012C161.654 33.1153 162.048 33.36 162.479 33.521C162.91 33.682 163.368 33.7561 163.827 33.7392C164.641 33.7557 165.436 33.4883 166.074 32.983C166.795 32.3587 167.347 31.5636 167.681 30.6706C167.72 30.593 167.754 30.5615 167.783 30.576C167.812 30.5906 167.812 30.6318 167.783 30.6996C167.538 31.32 167.21 31.9046 166.809 32.4376C166.451 32.9183 166.013 33.334 165.514 33.6665ZM165.194 28.4163C165.189 28.2253 165.14 28.038 165.049 27.8699C164.958 27.7018 164.828 27.5577 164.671 27.4492C164.276 27.1583 163.793 27.012 163.304 27.0347C162.68 27.0178 162.067 27.2041 161.558 27.5655C161.059 27.9407 160.696 28.4695 160.526 29.0708C161.263 29.0708 162.104 29.0611 163.049 29.0417L164.496 29.0126C164.617 29.0021 164.736 28.9802 164.852 28.9472C164.933 28.9314 165.01 28.8993 165.078 28.8526C165.119 28.7988 165.149 28.7368 165.165 28.6708C165.186 28.5876 165.196 28.5021 165.194 28.4163ZM167.972 34.1755C167.768 34.1852 167.613 34.1901 167.507 34.1901H167.216C167.158 34.1901 167.129 34.1682 167.129 34.1246C167.129 34.081 167.158 34.0592 167.216 34.0592C167.507 34.0592 167.688 33.9816 167.761 33.8265C167.864 33.3786 167.901 32.918 167.87 32.4594V24.126C167.902 23.8203 167.851 23.5117 167.725 23.2316C167.628 23.1007 167.366 23.0741 166.939 23.1516C166.881 23.1613 166.852 23.1444 166.852 23.1007C166.852 23.0571 166.881 23.0304 166.939 23.0207C167.245 22.9678 167.545 22.885 167.834 22.7735C168.057 22.6848 168.266 22.5622 168.452 22.4099C168.471 22.3808 168.513 22.3736 168.576 22.3881C168.639 22.4026 168.67 22.4293 168.67 22.4681V32.4594C168.63 32.9289 168.674 33.4018 168.801 33.8556C168.888 33.9913 169.111 34.0592 169.47 34.0592C169.528 34.0592 169.557 34.081 169.557 34.1246C169.557 34.1682 169.528 34.1901 169.47 34.1901H169.186C169.085 34.1901 168.937 34.1852 168.743 34.1755C168.627 34.1658 168.542 34.161 168.488 34.161H168.241C168.188 34.161 168.098 34.1658 167.972 34.1755ZM184.348 31.4704C184.304 32.162 184 32.8114 183.497 33.2884C183.3 33.5511 183.05 33.7696 182.763 33.9299C182.476 34.0902 182.159 34.1887 181.832 34.2191C181.43 34.1572 181.055 33.9776 180.756 33.7028C180.15 33.2205 179.581 32.693 179.054 32.1249C178.71 32.6965 178.255 33.1935 177.716 33.5865C177.261 33.9832 176.689 34.2206 176.087 34.2628C175.811 34.2503 175.541 34.1798 175.294 34.0557C175.047 33.9317 174.829 33.7569 174.655 33.5429C174.239 33.1442 173.996 32.5986 173.978 32.0231C173.995 31.7049 174.075 31.3933 174.215 31.1071C174.355 30.8209 174.552 30.566 174.793 30.3579C175.281 29.8478 175.926 29.5173 176.625 29.4198C176.203 28.9259 175.826 28.3954 175.498 27.8346C175.289 27.5061 175.161 27.132 175.127 26.7438C175.112 26.3947 175.168 26.0461 175.29 25.7188C175.413 25.3915 175.6 25.0922 175.84 24.8387C176.087 24.5939 176.379 24.4009 176.702 24.271C177.024 24.1412 177.369 24.077 177.716 24.0824C178.19 24.0885 178.661 24.1519 179.12 24.2715C179.502 24.3348 179.873 24.4575 180.218 24.6351C180.169 25.0714 180.133 25.498 180.109 25.9149C180.084 26.3318 180.072 26.739 180.072 27.1365C180.072 27.2529 180.045 27.311 179.992 27.311C179.939 27.311 179.912 27.2529 179.912 27.1365C179.901 26.7229 179.85 26.3114 179.759 25.9076C179.694 25.602 179.568 25.3126 179.389 25.0568C179.212 24.7819 178.967 24.5586 178.676 24.4096C178.372 24.264 178.038 24.1918 177.702 24.1988C177.44 24.1871 177.179 24.2274 176.933 24.3172C176.687 24.4071 176.461 24.5448 176.269 24.7223C176.088 24.8969 175.946 25.1076 175.853 25.3406C175.759 25.5736 175.715 25.8238 175.724 26.0748C175.769 26.6037 175.955 27.1109 176.262 27.5437C176.93 28.518 177.668 29.4416 178.472 30.307C179.262 31.2232 180.115 32.0833 181.025 32.8811C181.442 33.3201 181.982 33.624 182.574 33.7538C182.864 33.7538 183.104 33.5186 183.294 33.0484C183.493 32.5214 183.589 31.961 183.577 31.3977C183.582 30.9483 183.538 30.4997 183.446 30.0597C183.39 29.7369 183.266 29.4295 183.083 29.158L181.512 29.1435C181.095 29.1435 180.763 29.1459 180.516 29.1508C180.353 29.1484 180.19 29.1605 180.029 29.1871C179.99 29.1968 179.963 29.1944 179.949 29.1799C179.934 29.1653 179.941 29.1435 179.97 29.1144C180.009 29.0659 180.094 28.952 180.225 28.7726C180.356 28.5933 180.45 28.5036 180.508 28.5036H181.265C181.623 28.5133 181.88 28.5181 182.036 28.5181H182.385C182.617 28.5181 182.86 28.5133 183.112 28.5036C183.282 28.5016 183.452 28.487 183.621 28.46C183.661 28.4492 183.704 28.4492 183.744 28.46C183.759 28.4697 183.747 28.4939 183.708 28.5327C183.66 28.5713 183.616 28.6152 183.577 28.6636C183.538 28.712 183.485 28.7848 183.417 28.8817C183.359 28.9593 183.315 29.015 183.286 29.049C183.257 29.0829 183.228 29.1144 183.199 29.1435C183.557 29.4293 183.85 29.7889 184.057 30.1979C184.252 30.5937 184.351 31.0294 184.348 31.4704ZM176.698 29.5216C176.154 29.5931 175.643 29.8232 175.229 30.1834C174.875 30.5093 174.661 30.9605 174.633 31.4414C174.677 32.0179 174.931 32.5584 175.346 32.9611C175.502 33.1606 175.697 33.326 175.92 33.4473C176.143 33.5686 176.388 33.6432 176.64 33.6665C177.097 33.6523 177.538 33.4917 177.898 33.2084C178.327 32.8943 178.682 32.4897 178.938 32.0231C178.628 31.6934 178.375 31.422 178.182 31.2087C177.988 30.9954 177.852 30.8451 177.774 30.7578C177.6 30.5736 177.423 30.3773 177.243 30.1688C177.064 29.9604 176.882 29.7446 176.698 29.5216Z" fill="#5B5B5B"/>
<path d="M150.864 45.2132C150.477 45.973 149.913 46.6292 149.22 47.1271C148.613 47.5796 147.878 47.8285 147.12 47.8383C146.678 47.8549 146.238 47.7814 145.825 47.6223C145.413 47.4631 145.037 47.2217 144.72 46.9126C144.41 46.5991 144.167 46.2252 144.007 45.814C143.847 45.4029 143.774 44.9632 143.79 44.5224C143.79 44.0121 143.897 43.5074 144.104 43.041C144.311 42.5746 144.614 42.1567 144.992 41.8144C145.35 41.4471 145.778 41.155 146.25 40.9552C146.722 40.7554 147.229 40.652 147.742 40.6509C148.288 40.6415 148.829 40.7571 149.323 40.9891C149.788 41.2145 150.021 41.4426 150.022 41.6733C150.019 41.7288 150.004 41.7829 149.977 41.8319C149.951 41.8808 149.914 41.9232 149.87 41.9562C149.775 42.0414 149.652 42.0883 149.524 42.0878C149.446 42.0846 149.37 42.0594 149.306 42.0151C149.181 41.9252 149.066 41.8234 148.961 41.7112C148.723 41.4508 148.439 41.2377 148.122 41.0829C147.853 40.9692 147.564 40.9128 147.272 40.9171C146.893 40.9056 146.516 40.9782 146.169 41.1297C145.821 41.2812 145.511 41.5079 145.262 41.7933C144.72 42.4393 144.441 43.2657 144.481 44.1079C144.467 44.5275 144.538 44.9456 144.692 45.3366C144.845 45.7275 145.076 46.0829 145.372 46.381C145.672 46.6772 146.029 46.909 146.422 47.0622C146.815 47.2153 147.235 47.2867 147.656 47.2718C148.276 47.2843 148.885 47.1067 149.401 46.7628C149.971 46.3463 150.434 45.8011 150.754 45.1717C150.757 45.1602 150.762 45.1494 150.769 45.1399C150.776 45.1304 150.785 45.1225 150.795 45.1165C150.804 45.112 150.813 45.1096 150.823 45.1096C150.833 45.1096 150.842 45.112 150.851 45.1165C150.859 45.1198 150.866 45.1256 150.871 45.133C150.876 45.1404 150.878 45.1491 150.878 45.1579C150.878 45.1772 150.873 45.1961 150.864 45.2132ZM157.372 44.1493C157.375 44.6285 157.284 45.1036 157.103 45.5471C156.921 45.9906 156.654 46.3937 156.315 46.733C155.99 47.0872 155.593 47.3688 155.152 47.5593C154.71 47.7497 154.233 47.8448 153.752 47.8383C153.297 47.8548 152.844 47.7781 152.419 47.6129C151.995 47.4477 151.609 47.1975 151.285 46.8777C150.964 46.5493 150.713 46.1588 150.548 45.73C150.383 45.3013 150.307 44.8433 150.326 44.3842C150.316 43.8966 150.404 43.4121 150.585 42.959C150.765 42.5059 151.034 42.0933 151.376 41.7453C151.708 41.3915 152.111 41.1115 152.558 40.9236C153.006 40.7357 153.488 40.644 153.973 40.6546C154.426 40.6372 154.879 40.7142 155.301 40.8805C155.723 41.0469 156.106 41.299 156.426 41.621C156.745 41.9575 156.993 42.3548 157.155 42.7891C157.318 43.2235 157.392 43.686 157.372 44.1493ZM151.154 44.1493C151.132 45.047 151.414 45.9259 151.954 46.6428C152.181 46.967 152.484 47.2313 152.835 47.4131C153.187 47.5948 153.577 47.6886 153.973 47.6863C154.336 47.6951 154.696 47.6169 155.023 47.4583C155.35 47.2997 155.634 47.0652 155.852 46.7744C156.359 46.0785 156.612 45.2302 156.57 44.3704C156.6 43.4589 156.326 42.5634 155.79 41.8253C155.569 41.5041 155.273 41.242 154.927 41.0619C154.582 40.8817 154.197 40.7891 153.807 40.792C153.436 40.7808 153.068 40.8583 152.732 41.0182C152.397 41.1781 152.105 41.4156 151.88 41.7112C151.367 42.4173 151.111 43.2776 151.154 44.1493ZM159.057 47.6863C158.874 47.6955 158.733 47.7001 158.636 47.7001H158.367C158.311 47.7001 158.284 47.6795 158.284 47.6383C158.284 47.5971 158.311 47.5765 158.367 47.5765C158.643 47.5765 158.815 47.5038 158.884 47.3583C158.982 46.9328 159.017 46.4953 158.988 46.0596V42.7554C158.985 42.5023 158.928 42.2528 158.822 42.0231C158.725 41.7949 158.584 41.5883 158.407 41.4152C158.392 41.4035 158.382 41.3862 158.38 41.3672C158.38 41.3531 158.389 41.3418 158.407 41.333C158.564 41.2607 158.716 41.1798 158.863 41.0909C158.958 41.0341 159.046 40.9671 159.126 40.8909C159.144 40.8725 159.158 40.8655 159.167 40.8698C159.182 40.8793 159.196 40.8908 159.209 40.904C159.383 41.0899 159.515 41.3115 159.595 41.5534C159.695 41.8185 159.746 42.0992 159.747 42.3823C160.103 41.8663 160.553 41.4222 161.074 41.0734C161.507 40.7978 162.011 40.6517 162.524 40.6524C162.847 40.6292 163.171 40.6821 163.47 40.8069C163.769 40.9317 164.034 41.1248 164.244 41.3708C164.672 42.0052 164.873 42.7648 164.817 43.5276V46.3461C164.817 46.5488 164.822 46.7167 164.831 46.8501C164.838 46.9638 164.852 47.0769 164.873 47.1889C164.892 47.3045 164.947 47.4109 165.031 47.4929C165.17 47.5636 165.326 47.5924 165.48 47.5758C165.536 47.5758 165.563 47.5964 165.563 47.6376C165.563 47.6788 165.536 47.6996 165.482 47.7001H165.385C165.337 47.7001 165.24 47.6955 165.094 47.6863C164.864 47.6863 164.701 47.6841 164.604 47.6798C164.508 47.6754 164.436 47.673 164.39 47.6725H164.279C164.231 47.6725 164.148 47.6771 164.03 47.6863C163.856 47.6955 163.72 47.7001 163.623 47.7001H163.354C163.299 47.7001 163.271 47.6795 163.271 47.6383C163.271 47.5971 163.299 47.5765 163.354 47.5765C163.667 47.5765 163.863 47.4936 163.941 47.3278C164.043 46.983 164.083 46.6227 164.058 46.264V43.4825C164.104 42.831 163.939 42.182 163.588 41.6312C163.424 41.4223 163.211 41.2565 162.968 41.1484C162.725 41.0402 162.459 40.9927 162.194 41.0102C161.743 41.0074 161.301 41.1371 160.923 41.3832C160.464 41.7019 160.067 42.0995 159.748 42.5576V47.575H160.467C160.522 47.575 160.55 47.5956 160.55 47.6369C160.55 47.6781 160.522 47.6991 160.467 47.7001H160.37C160.321 47.7001 160.229 47.6955 160.094 47.6863C159.873 47.6863 159.716 47.6841 159.624 47.6798C159.532 47.6754 159.463 47.673 159.417 47.6725H159.3C159.249 47.6725 159.168 47.6771 159.057 47.6863ZM168.853 47.759H168.701C168.682 47.7602 168.664 47.7577 168.646 47.7517C168.633 47.7435 168.624 47.7315 168.618 47.7176L166.283 42.3671C166.122 41.9424 165.901 41.5424 165.629 41.1789C165.53 41.0825 165.412 41.0091 165.282 40.9637C165.152 40.9183 165.013 40.9022 164.876 40.9164C164.828 40.9164 164.805 40.8955 164.807 40.8538C164.81 40.8121 164.833 40.7915 164.876 40.792H164.993C165.053 40.792 165.18 40.7966 165.374 40.8058C165.678 40.8058 165.892 40.8083 166.016 40.8131C166.14 40.8179 166.22 40.8201 166.258 40.8196H166.672C166.884 40.8104 167.041 40.8058 167.142 40.8058H167.391C167.446 40.8058 167.474 40.8242 167.474 40.8611C167.474 40.8979 167.446 40.9164 167.391 40.9164C166.967 40.9164 166.732 40.9876 166.686 41.1301C166.681 41.4536 166.767 41.772 166.935 42.0486L169.116 46.9533L170.981 42.5598C171.203 42.1755 171.277 41.7235 171.189 41.2887C171.078 41.04 170.774 40.9156 170.277 40.9156C170.222 40.9156 170.194 40.8948 170.194 40.8531C170.194 40.8114 170.222 40.7908 170.277 40.7913H170.553C170.664 40.7913 170.833 40.7959 171.062 40.8051C171.228 40.8143 171.343 40.8189 171.408 40.8189H171.732C171.82 40.8189 171.974 40.8143 172.195 40.8051C172.352 40.7959 172.455 40.7913 172.506 40.7913H172.61C172.656 40.7913 172.679 40.8119 172.679 40.8531C172.679 40.8943 172.656 40.9151 172.61 40.9156C172.469 40.9148 172.331 40.9453 172.204 41.0051C172.077 41.0649 171.966 41.1524 171.877 41.261C171.557 41.6713 171.301 42.1279 171.117 42.615L168.936 47.7132C168.925 47.7235 168.914 47.7328 168.901 47.7408C168.887 47.7504 168.87 47.7555 168.853 47.7554V47.759ZM174.889 38.5967C174.89 38.6718 174.875 38.7463 174.845 38.8154C174.815 38.8844 174.771 38.9464 174.716 38.9974C174.663 39.0507 174.599 39.0928 174.529 39.1213C174.459 39.1498 174.384 39.164 174.308 39.1632C174.234 39.1643 174.16 39.1502 174.091 39.1217C174.022 39.0932 173.96 39.0509 173.908 38.9974C173.854 38.9454 173.812 38.8831 173.783 38.8142C173.755 38.7453 173.741 38.6713 173.742 38.5967C173.741 38.5211 173.755 38.4461 173.784 38.376C173.812 38.306 173.854 38.2423 173.908 38.1887C173.959 38.1335 174.021 38.0896 174.09 38.0599C174.159 38.0302 174.233 38.0154 174.308 38.0164C174.384 38.0158 174.46 38.0307 174.53 38.0604C174.6 38.09 174.664 38.1337 174.716 38.1887C174.771 38.241 174.815 38.304 174.845 38.3739C174.876 38.4439 174.891 38.5192 174.891 38.5952L174.889 38.5967ZM173.951 47.6863C173.721 47.6955 173.548 47.7001 173.433 47.7001H173.136C173.081 47.7001 173.053 47.6795 173.053 47.6383C173.053 47.5971 173.081 47.5765 173.136 47.5765C173.505 47.5765 173.737 47.5188 173.833 47.4034C173.965 47.107 174.016 46.7805 173.979 46.4581V42.2405C174.013 41.9769 173.963 41.7091 173.834 41.4763C173.737 41.3793 173.491 41.3815 173.095 41.4828C173.04 41.5012 173.008 41.492 172.999 41.4552C172.989 41.4183 173.014 41.3907 173.071 41.3723C173.332 41.313 173.586 41.2298 173.831 41.1236C174.095 41.0028 174.345 40.8546 174.577 40.6815C174.596 40.6631 174.63 40.6631 174.681 40.6815C174.731 40.6999 174.755 40.7241 174.753 40.7542V46.4567C174.717 46.7791 174.767 47.1055 174.899 47.402C174.996 47.5174 175.224 47.575 175.583 47.575C175.638 47.575 175.666 47.5956 175.666 47.6369C175.666 47.6781 175.637 47.6991 175.579 47.7001H175.296C175.19 47.7001 175.027 47.6955 174.806 47.6863C174.667 47.6771 174.571 47.6725 174.515 47.6725H174.259C174.201 47.6725 174.099 47.6771 173.951 47.6863ZM180.196 46.1003C179.959 46.5769 179.634 47.0036 179.236 47.3576C178.937 47.6479 178.541 47.8188 178.124 47.8383C177.932 47.8541 177.739 47.8226 177.561 47.7465C177.384 47.6705 177.228 47.5522 177.106 47.402C176.859 46.998 176.746 46.5267 176.781 46.0545V41.317H176.024C176.014 41.317 176.01 41.3078 176.01 41.2894C176.009 41.2819 176.01 41.2744 176.013 41.2673C176.015 41.2601 176.019 41.2536 176.024 41.2479L177.516 39.7143C177.534 39.6959 177.548 39.6891 177.557 39.694C177.566 39.6988 177.571 39.7102 177.571 39.7282V40.8058H178.415C178.793 40.7966 179.069 40.792 179.244 40.792H179.686C179.767 40.7834 179.848 40.781 179.929 40.7847C179.97 40.7896 179.99 40.8058 179.99 40.8335C179.99 40.8703 179.949 40.9348 179.866 41.0269C179.761 41.1389 179.645 41.2407 179.521 41.3308H178.899C178.475 41.3216 178.169 41.317 177.98 41.317H177.543V45.9869C177.517 46.3903 177.603 46.7932 177.792 47.1504C177.871 47.2756 177.981 47.3774 178.112 47.4455C178.244 47.5135 178.391 47.5452 178.538 47.5372C178.693 47.5264 178.844 47.4848 178.983 47.4149C179.122 47.345 179.245 47.2482 179.346 47.13C179.645 46.814 179.873 46.4383 180.015 46.0276C180.019 46.0156 180.026 46.0045 180.034 45.9951C180.043 45.9857 180.054 45.9782 180.065 45.973C180.077 45.9678 180.09 45.9651 180.102 45.965C180.115 45.9649 180.128 45.9674 180.139 45.9724C180.196 45.9913 180.215 46.0339 180.196 46.1003ZM185.504 47.2056C185.195 47.4112 184.858 47.5716 184.503 47.6819C184.155 47.7876 183.793 47.8403 183.429 47.8383C182.965 47.8604 182.5 47.7906 182.063 47.6329C181.625 47.4751 181.223 47.2326 180.88 46.9191C180.559 46.6072 180.308 46.2314 180.143 45.8161C179.978 45.4007 179.902 44.9552 179.92 44.5086C179.916 44.0034 180.015 43.5027 180.211 43.037C180.407 42.5714 180.696 42.1507 181.06 41.8006C181.399 41.4384 181.809 41.1497 182.264 40.9525C182.719 40.7552 183.209 40.6536 183.705 40.6538C184.347 40.6162 184.981 40.8017 185.502 41.1789C185.699 41.3186 185.858 41.5057 185.964 41.723C186.071 41.9402 186.12 42.1807 186.109 42.4223C186.11 42.4978 186.094 42.5724 186.061 42.6405C186.029 42.7086 185.981 42.7685 185.923 42.8157C185.768 42.9142 185.587 42.9604 185.404 42.9473H180.735C180.679 43.1374 180.639 43.3321 180.618 43.5291C180.594 43.7401 180.583 43.9523 180.583 44.1646C180.573 44.5792 180.652 44.9911 180.812 45.3733C180.973 45.7555 181.213 46.0994 181.516 46.3825C181.835 46.6806 182.21 46.9126 182.619 47.0652C183.028 47.2179 183.463 47.2881 183.899 47.2718C184.672 47.2876 185.427 47.0336 186.034 46.5534C186.719 45.9604 187.244 45.205 187.561 44.3566C187.598 44.2829 187.63 44.2531 187.658 44.2672C187.685 44.2812 187.685 44.3202 187.658 44.3842C187.425 44.9735 187.113 45.5287 186.732 46.0349C186.392 46.4918 185.976 46.8868 185.502 47.2027L185.504 47.2056ZM185.201 42.218C185.196 42.0365 185.148 41.8587 185.062 41.6991C184.976 41.5395 184.853 41.4026 184.703 41.2996C184.328 41.0231 183.87 40.884 183.404 40.9054C182.812 40.8895 182.23 41.0666 181.746 41.4101C181.272 41.7666 180.927 42.2691 180.766 42.8404C181.466 42.8404 182.265 42.8312 183.165 42.8128L184.54 42.7852C184.654 42.7751 184.767 42.7542 184.878 42.7226C184.954 42.7078 185.027 42.6773 185.091 42.6332C185.131 42.5819 185.159 42.523 185.174 42.4601C185.193 42.3798 185.201 42.2974 185.198 42.2151L185.201 42.218ZM192.824 45.7658C192.83 46.049 192.771 46.3299 192.653 46.5872C192.535 46.8445 192.359 47.0716 192.141 47.2515C191.651 47.6544 191.029 47.8632 190.395 47.8383C190.172 47.8387 189.948 47.8273 189.726 47.8041C189.509 47.7812 189.293 47.7465 189.08 47.7001C188.832 47.644 188.588 47.5748 188.348 47.4929C188.071 47.4008 187.902 47.3455 187.839 47.3271C187.809 47.3209 187.783 47.3034 187.766 47.2784C187.75 47.2416 187.743 47.2014 187.746 47.1613V46.9431C187.755 46.6392 187.762 46.319 187.766 45.9825C187.77 45.6461 187.773 45.2614 187.773 44.8285C187.773 44.7825 187.791 44.7594 187.828 44.7594C187.865 44.7594 187.883 44.7825 187.883 44.8285C187.877 45.2541 187.923 45.6788 188.021 46.0931C188.092 46.4129 188.234 46.7128 188.436 46.9708C188.636 47.2282 188.907 47.4206 189.217 47.5234C189.599 47.6571 190.002 47.7216 190.406 47.7139C190.905 47.7464 191.399 47.6076 191.808 47.3205C191.971 47.1888 192.1 47.0207 192.185 46.8298C192.27 46.6389 192.309 46.4306 192.298 46.2218C192.304 45.9849 192.239 45.7517 192.112 45.5521C191.96 45.3388 191.758 45.1657 191.525 45.0474C191.37 44.9665 191.211 44.8951 191.048 44.8336C190.868 44.7643 190.557 44.6605 190.115 44.5224C189.43 44.3616 188.783 44.0708 188.208 43.6658C188.059 43.5323 187.941 43.368 187.863 43.1843C187.784 43.0005 187.746 42.8018 187.752 42.6019C187.745 42.3248 187.807 42.0502 187.933 41.8029C188.058 41.5557 188.243 41.3435 188.471 41.1854C188.996 40.8165 189.627 40.6298 190.268 40.6538C190.581 40.6538 190.872 40.6652 191.141 40.688C191.409 40.7108 191.865 40.7869 192.509 40.9164C192.535 40.9217 192.56 40.9334 192.581 40.9505C192.597 40.9715 192.604 40.9973 192.602 41.0232C192.602 41.0969 192.599 41.2075 192.595 41.3548C192.591 41.5022 192.584 41.7555 192.575 42.1147C192.566 42.4924 192.559 42.7619 192.554 42.9233C192.549 43.0848 192.547 43.206 192.547 43.2869C192.547 43.3422 192.529 43.3698 192.492 43.3698C192.455 43.3698 192.437 43.3422 192.437 43.2869C192.442 42.9281 192.412 42.5696 192.347 42.2165C192.304 41.9572 192.207 41.7097 192.064 41.4894C191.892 41.2381 191.645 41.0473 191.359 40.944C191.001 40.812 190.621 40.7488 190.24 40.7578C189.735 40.7345 189.235 40.861 188.803 41.1214C188.633 41.2209 188.493 41.3633 188.396 41.5342C188.299 41.7051 188.249 41.8986 188.25 42.0951C188.249 42.2641 188.285 42.4314 188.357 42.5845C188.428 42.7376 188.534 42.8725 188.665 42.9793C189.208 43.3459 189.812 43.6147 190.448 43.7734C190.936 43.93 191.284 44.0497 191.491 44.1326C191.67 44.2018 191.844 44.285 192.01 44.3813C192.263 44.5249 192.477 44.729 192.631 44.9754C192.766 45.2168 192.832 45.4898 192.824 45.7658Z" fill="#5B5B5B"/>
<path d="M51.462 36.538C51.4731 38.026 51.1887 39.5014 50.6252 40.8786C50.0618 42.2558 49.2305 43.5075 48.1796 44.5609C47.1696 45.6612 45.9386 46.5357 44.5672 47.1272C43.1957 47.7187 41.7148 48.0138 40.2214 47.9931C38.8091 48.0445 37.4011 47.8064 36.0841 47.2937C34.7671 46.781 33.5688 46.0045 32.5629 45.0117C31.5648 43.9921 30.7855 42.7793 30.2728 41.4477C29.7602 40.1161 29.5249 38.6939 29.5815 37.2681C29.5528 35.7539 29.8264 34.2493 30.3863 32.8421C30.9462 31.4349 31.7811 30.1536 32.8421 29.0729C33.8736 27.9738 35.1248 27.1041 36.5144 26.5201C37.904 25.9362 39.4009 25.6512 40.9079 25.6836C42.3158 25.6302 43.7196 25.8696 45.0303 26.3865C46.3411 26.9034 47.5303 27.6867 48.5228 28.6868C49.5138 29.7318 50.2847 30.9652 50.7896 32.314C51.2945 33.6627 51.5232 35.0992 51.462 36.538ZM32.1557 36.538C32.0858 39.3266 32.963 42.0565 34.644 44.2824C35.3486 45.2883 36.2866 46.1084 37.3775 46.6725C38.4684 47.2365 39.6798 47.5278 40.9079 47.5212C42.0357 47.5485 43.1538 47.3057 44.1687 46.8132C45.1837 46.3206 46.0662 45.5925 46.7427 44.6896C48.23 42.8019 48.9736 40.3135 48.9736 37.2245C49.0644 34.397 48.2117 31.6198 46.55 29.3303C45.865 28.3315 44.9455 27.5159 43.8721 26.9549C42.7987 26.3939 41.6042 26.1047 40.393 26.1126C39.2404 26.0775 38.096 26.3181 37.0551 26.8144C36.0142 27.3107 35.1068 28.0484 34.4084 28.966C32.9066 30.8678 32.1557 33.3918 32.1557 36.538ZM55.8381 47.5212C55.1516 47.5498 54.6368 47.5641 54.2936 47.5641H53.3926C53.221 47.5641 53.1352 47.4999 53.1352 47.3714C53.1352 47.2429 53.221 47.1787 53.3926 47.1787C54.4509 47.1787 55.123 47.0357 55.4091 46.7497C55.6951 46.4637 55.8381 45.5198 55.8381 43.9181V27.7429H53.7788C53.6328 27.7523 53.4866 27.7304 53.3497 27.6789C53.3114 27.6635 53.2786 27.6368 53.2557 27.6024C53.2327 27.5681 53.2206 27.5276 53.221 27.4863L54.2078 26.1563H55.9239C56.1388 22.9431 57.4053 19.89 59.5278 17.468C60.4016 16.4121 61.4956 15.5598 62.7331 14.9706C63.9707 14.3814 65.322 14.0696 66.6925 14.0569C67.5364 14.0399 68.3792 14.1264 69.202 14.3143C69.8758 14.4859 70.2128 14.7004 70.2128 14.9579C70.1771 15.405 69.9684 15.8206 69.631 16.1162C69.4733 16.2988 69.2793 16.4466 69.0613 16.55C68.8434 16.6534 68.6062 16.7102 68.365 16.7169C68.1348 16.714 67.9053 16.6924 67.6786 16.6522C67.4212 16.609 67.0207 16.5159 66.4773 16.3729C65.6478 16.2013 65.0043 16.0801 64.5467 16.0093C64.1068 15.9391 63.6621 15.9032 63.2167 15.9017C61.5864 15.9017 60.3422 16.7743 59.4841 18.5195C58.6261 20.2647 58.197 22.8098 58.197 26.1548H67.7229V27.7422H58.197V43.9174C58.2256 45.4333 58.3759 46.3556 58.6479 46.6842C58.9198 47.0129 59.7706 47.1775 61.2002 47.178C61.3719 47.178 61.4577 47.2422 61.4577 47.3707C61.4577 47.4992 61.3721 47.5636 61.201 47.5641H60.2556C59.8838 47.5641 59.3118 47.5498 58.5395 47.5212C58.0547 47.4926 57.7188 47.4783 57.5317 47.4783H56.7391C56.5674 47.4783 56.2671 47.4926 55.8381 47.5212ZM67.1645 47.5212C66.478 47.5498 65.9632 47.5641 65.62 47.5641H64.719C64.5474 47.5641 64.4616 47.4999 64.4616 47.3714C64.4616 47.2429 64.5474 47.1787 64.719 47.1787C65.7773 47.1787 66.4494 47.0357 66.7354 46.7497C67.0215 46.4637 67.1645 45.5198 67.1645 43.9181V27.7429H65.1051C64.9592 27.7523 64.813 27.7304 64.6761 27.6789C64.6378 27.6635 64.605 27.6368 64.582 27.6024C64.5591 27.5681 64.547 27.5276 64.5474 27.4863L65.5342 26.1563H67.2932C67.6137 23.1505 68.9358 20.3398 71.0468 18.1763C71.9573 17.1724 73.066 16.3681 74.3029 15.8141C75.5399 15.2602 76.8782 14.9686 78.2334 14.9579C79.0701 14.9464 79.9052 15.0328 80.7218 15.2153C81.4369 15.3869 81.7944 15.6014 81.7944 15.8588C81.7622 16.3017 81.5628 16.7159 81.2367 17.0172C81.0777 17.2037 80.8805 17.3538 80.6584 17.4574C80.4363 17.5611 80.1946 17.6158 79.9496 17.6178C79.7263 17.6156 79.5037 17.5939 79.2842 17.5531C79.0418 17.5105 78.6487 17.4176 78.1047 17.2746C77.4998 17.086 76.8837 16.9357 76.2599 16.8245C75.82 16.7545 75.3753 16.7188 74.9299 16.7176C74.0999 16.7104 73.2847 16.9382 72.5787 17.3746C71.8726 17.8111 71.3045 18.4384 70.9399 19.1842C69.9961 20.829 69.5241 23.1528 69.5241 26.1555C69.8012 26.126 70.0796 26.1116 70.3582 26.1126H73.9839C74.2265 26.1066 74.4692 26.1136 74.711 26.1337C74.7968 26.1483 74.8397 26.1698 74.8397 26.1984C74.7956 26.3687 74.7067 26.5241 74.5823 26.6486C74.4107 26.8633 74.0532 27.2424 73.5098 27.7858C73.1093 27.7572 72.6587 27.7429 72.1579 27.7429H69.5241V43.9174C69.5527 45.4333 69.7028 46.3556 69.9743 46.6842C70.2457 47.0129 71.0965 47.1775 72.5266 47.178C72.6982 47.178 72.784 47.2422 72.784 47.3707C72.784 47.4992 72.6985 47.5636 72.5273 47.5641H71.582C71.2102 47.5641 70.6382 47.5498 69.8659 47.5212C69.3811 47.4926 69.0449 47.4783 68.8573 47.4783H68.0654C67.8938 47.4783 67.5935 47.4926 67.1645 47.5212ZM78.6625 47.5212C77.9474 47.5498 77.4183 47.5641 77.0751 47.5641H76.1756C76.0039 47.5641 75.9181 47.4999 75.9181 47.3714C75.9181 47.2429 76.0039 47.1785 76.1756 47.178C77.3196 47.178 78.0417 46.9991 78.3418 46.6413C78.6419 46.2836 78.7924 45.3041 78.7934 43.7028V30.7891C78.7934 29.5878 78.629 28.8298 78.3003 28.5152C77.9717 28.2006 77.2203 28.1863 76.0461 28.4723C75.8745 28.5009 75.7674 28.458 75.7247 28.3436C75.6821 28.2292 75.7463 28.1565 75.9174 28.1254C76.8527 27.9307 77.7603 27.621 78.6196 27.2034C79.3329 26.8261 79.984 26.3414 80.5502 25.7665C80.6074 25.7093 80.7218 25.7023 80.8934 25.7454C81.065 25.7886 81.1508 25.8671 81.1508 25.981V43.7028C81.1508 45.276 81.3009 46.2484 81.601 46.6202C81.901 46.9921 82.6231 47.178 83.7672 47.178C83.9388 47.178 84.0246 47.2422 84.0246 47.3707C84.0246 47.4992 83.9391 47.5636 83.7679 47.5641H82.8655C82.5223 47.5641 82.0075 47.5498 81.321 47.5212C80.892 47.4926 80.5917 47.4783 80.42 47.4783H79.6282C79.442 47.4783 79.1201 47.4926 78.6625 47.5212ZM107.708 39.8416C106.504 42.2009 104.753 44.2382 102.602 45.784C100.716 47.1895 98.4334 47.9627 96.0811 47.9931C94.7103 48.0436 93.3436 47.8148 92.0641 47.3207C90.7845 46.8265 89.6188 46.0773 88.6378 45.1186C87.6724 44.1458 86.9171 42.9851 86.4189 41.7083C85.9207 40.4315 85.6901 39.066 85.7415 37.6964C85.7413 36.1118 86.0735 34.5447 86.7164 33.0963C87.3593 31.6479 88.2987 30.3504 89.474 29.2874C90.5855 28.1486 91.9133 27.2432 93.3794 26.6244C94.8454 26.0055 96.4204 25.6857 98.0117 25.6836C99.708 25.6542 101.389 26.0137 102.924 26.7344C104.369 27.4353 105.091 28.1434 105.091 28.8584C105.082 29.0308 105.035 29.1991 104.954 29.3512C104.872 29.5032 104.758 29.6352 104.619 29.7376C104.324 30.0018 103.942 30.1472 103.546 30.1455C103.301 30.1396 103.063 30.064 102.86 29.9274C102.473 29.6476 102.113 29.331 101.787 28.982C101.054 28.1664 100.173 27.4967 99.1912 27.0085C98.3568 26.6557 97.4581 26.4804 96.5523 26.4937C95.3752 26.4587 94.205 26.685 93.1257 27.1561C92.0465 27.6272 91.085 28.3315 90.3103 29.2184C88.694 31.0348 87.8859 33.4304 87.8859 36.405C87.8416 37.7078 88.0642 39.006 88.5402 40.2196C89.0161 41.4333 89.7353 42.5367 90.6535 43.4622C91.5858 44.3831 92.6966 45.1037 93.9176 45.5796C95.1385 46.0555 96.4439 46.2768 97.7536 46.2298C99.6826 46.2683 101.577 45.7143 103.181 44.6423C104.944 43.3489 106.377 41.6587 107.365 39.7085C107.373 39.6728 107.389 39.6392 107.412 39.6097C107.434 39.5802 107.461 39.5555 107.493 39.5369C107.52 39.5228 107.549 39.5155 107.579 39.5155C107.609 39.5155 107.638 39.5228 107.665 39.5369C107.69 39.5473 107.712 39.5651 107.728 39.588C107.743 39.611 107.751 39.638 107.751 39.6656C107.751 39.7269 107.736 39.7872 107.708 39.8416ZM122.853 46.0225C121.891 46.6613 120.844 47.1596 119.742 47.5023C118.664 47.8311 117.544 47.9965 116.417 47.9931C113.128 47.9931 110.489 47.0422 108.502 45.1405C107.507 44.1714 106.727 43.0036 106.213 41.7131C105.7 40.4226 105.464 39.0384 105.52 37.6506C105.508 36.0819 105.815 34.5271 106.424 33.0812C107.032 31.6354 107.929 30.3289 109.06 29.2416C110.113 28.1163 111.385 27.2192 112.799 26.6063C114.212 25.9933 115.737 25.6775 117.277 25.6785C119.653 25.6785 121.512 26.2219 122.855 27.3088C123.468 27.7424 123.963 28.3232 124.293 28.9979C124.624 29.6727 124.779 30.4196 124.745 31.1701C124.747 31.4046 124.696 31.6365 124.595 31.8482C124.494 32.06 124.347 32.2461 124.164 32.3925C123.685 32.6977 123.121 32.8405 122.554 32.7997H108.051C107.876 33.3883 107.755 33.9913 107.687 34.6016C107.615 35.2569 107.579 35.9158 107.581 36.5751C107.551 37.8622 107.794 39.1411 108.293 40.3278C108.792 41.5146 109.536 42.5825 110.477 43.4614C111.467 44.3882 112.63 45.1099 113.9 45.5849C115.171 46.0599 116.522 46.2788 117.877 46.229C120.278 46.2781 122.621 45.4904 124.504 44.001C126.378 42.5137 127.958 40.2398 129.245 37.1794C129.359 36.9506 129.46 36.8575 129.545 36.9002C129.631 36.9428 129.631 37.064 129.545 37.2638C128.822 39.0938 127.855 40.8182 126.671 42.3903C125.615 43.8099 124.324 45.0376 122.853 46.0196V46.0225ZM121.907 30.5338C121.893 29.9701 121.746 29.4177 121.477 28.9217C121.209 28.4258 120.827 28.0004 120.363 27.6804C119.198 26.8225 117.775 26.3909 116.33 26.458C114.489 26.4081 112.683 26.9575 111.181 28.0236C109.707 29.1305 108.637 30.6906 108.135 32.4644C110.309 32.4644 112.79 32.4358 115.579 32.3786C118.367 32.3214 119.791 32.2931 119.849 32.2936C120.205 32.2626 120.557 32.1978 120.901 32.1001C121.139 32.0538 121.365 31.959 121.565 31.8216C121.688 31.6626 121.775 31.4798 121.823 31.285C121.884 31.0386 121.913 30.7854 121.909 30.5316L121.907 30.5338Z" fill="#5B5B5B"/>
<path d="M42.2894 14.7782C39.1182 14.7688 36.0103 16.3256 33.1627 18.8402C31.631 17.7848 30.2868 16.4804 29.1858 14.9811C28.9315 14.6184 28.7059 14.2365 28.511 13.8387C29.3705 14.0091 30.2535 14.0251 31.1186 13.886C32.1605 13.7093 33.1409 13.272 33.9684 12.6147C34.796 11.9574 35.4438 11.1015 35.8518 10.1266C36.2153 9.33367 36.2722 8.43421 36.0117 7.60179C35.8843 7.27219 35.6867 6.97432 35.4325 6.72882C35.1784 6.48332 34.8738 6.29611 34.5399 6.1802C32.3199 5.32505 28.8055 6.74303 27.6187 9.83132C27.2015 10.7395 27.1007 11.7612 27.3323 12.7334C26.2004 12.3109 25.1643 11.6667 24.2847 10.8385C25.5516 9.34191 26.193 7.41467 26.0757 5.45738C25.9841 2.73705 25.0708 0.932952 23.7553 0.860962H23.6913H23.6659C22.3446 0.941678 21.4327 2.74652 21.3389 5.4545C21.2216 7.41401 21.8636 9.34342 23.1314 10.8421C22.2516 11.6683 21.2161 12.311 20.0853 12.7327C20.3169 11.7694 20.2186 10.7562 19.8061 9.85533C18.6099 6.74523 15.0976 5.32578 12.8747 6.1802C12.5408 6.29624 12.2363 6.48348 11.982 6.72895C11.7277 6.97443 11.5299 7.27224 11.4022 7.60179C11.142 8.44382 11.2031 9.3524 11.5738 10.152C11.9831 11.1213 12.6304 11.9718 13.4557 12.6245C14.281 13.2772 15.2577 13.7111 16.2953 13.886C17.1608 14.0239 18.0437 14.0079 18.9036 13.8387C18.7087 14.2363 18.4833 14.6182 18.2295 14.9811C17.1601 16.4408 15.8581 17.7148 14.3756 18.7522C11.176 16.1301 7.90373 14.7782 5.22266 14.7782H5.14632C1.48212 14.6532 0.0881464 16.4631 0.00452196 18.2105C-0.102372 20.4647 1.92349 22.996 5.1034 23.1821C7.35036 23.3596 11.1077 21.9336 14.3247 19.7216C18.44 23.5399 21.623 28.2527 23.6281 33.4963L23.9793 34.4169L24.3312 33.4963C26.2851 28.3909 29.4781 23.2607 33.2027 19.7979C36.3928 21.9656 40.0795 23.3552 42.3061 23.1828C45.4933 22.9952 47.5192 20.4611 47.4123 18.2105C47.3294 16.4653 45.9354 14.6423 42.2879 14.7782M5.15289 22.4302C2.41074 22.2695 0.66626 20.1367 0.755702 18.2454C0.837872 16.5278 2.33071 15.5251 4.78709 15.5251C4.90125 15.5251 5.01762 15.525 5.13469 15.5316C8.00556 15.4952 10.976 16.9256 13.724 19.2067C10.7005 21.2471 7.21005 22.58 5.15289 22.4302ZM28.3117 10.1251C29.4432 7.18296 32.5962 6.23983 34.2687 6.88265C34.5017 6.96288 34.7148 7.09213 34.8935 7.26173C35.0723 7.43133 35.2126 7.63733 35.3049 7.86578C35.4966 8.51616 35.4449 9.2141 35.1595 9.82914C34.7978 10.6861 34.2268 11.4385 33.4988 12.0174C32.7708 12.5964 31.9092 12.9834 30.9928 13.1429C30.0536 13.2905 29.094 13.241 28.175 12.9974C27.8509 12.0587 27.9004 11.0313 28.3132 10.128M22.0952 5.4814C22.1788 3.00102 22.9678 1.65791 23.7073 1.6121C24.4476 1.65209 25.2402 2.99374 25.3224 5.48575C25.4321 7.25697 24.8541 9.00222 23.7088 10.3578C22.5645 9.00166 21.9866 7.25682 22.0952 5.48575M16.4233 13.1487C15.5113 12.9911 14.6533 12.6077 13.9275 12.0335C13.2017 11.4592 12.6313 10.7124 12.2682 9.86114C11.975 9.23984 11.9189 8.53283 12.1104 7.87306C12.2026 7.64463 12.3428 7.43866 12.5214 7.26905C12.7001 7.09944 12.913 6.97016 13.1459 6.88993C13.5104 6.75722 13.896 6.69214 14.2839 6.69793C15.3415 6.72961 16.3657 7.07555 17.2259 7.69162C18.0861 8.30769 18.7433 9.166 19.1138 10.1571C19.5212 11.0534 19.5676 12.0722 19.2432 13.0018C18.3235 13.2454 17.3632 13.2949 16.4233 13.1472M23.98 32.3444C22.0285 27.3473 18.9457 22.8704 14.9733 19.2649C16.4642 18.1989 17.7736 16.8998 18.8513 15.4174C19.2447 14.8593 19.5699 14.2561 19.8199 13.6206C21.2757 13.1724 22.6068 12.3905 23.7073 11.3373C24.8082 12.3907 26.1398 13.1726 27.5962 13.6206C27.8455 14.2562 28.1705 14.8595 28.5641 15.4174C29.6788 16.9474 31.0379 18.2834 32.5868 19.3718C28.8574 23.0595 25.9274 27.4757 23.9793 32.3452M42.2559 22.4382C40.225 22.5873 36.7876 21.2849 33.7873 19.2794C36.4342 16.9786 39.324 15.5389 42.2145 15.5389H42.2981C44.9326 15.432 46.5739 16.4544 46.6611 18.2527C46.7513 20.1433 45.0061 22.2761 42.2574 22.4382" fill="#5B5B5B"/>
</svg>
