<svg width="161" height="40" viewBox="0 0 161 40" fill="none" xmlns="http://www.w3.org/2000/svg">
<path d="M117.665 27.5585C117.342 27.8839 116.962 28.1468 116.544 28.3342C116.15 28.515 115.723 28.6101 115.289 28.6129C114.995 28.6135 114.702 28.5768 114.417 28.5038C114.133 28.4307 113.86 28.3207 113.605 28.1766V31.6791H114.562C114.611 31.6791 114.635 31.6973 114.635 31.7337C114.635 31.77 114.611 31.7882 114.562 31.7882H114.447C114.387 31.7882 114.259 31.7842 114.065 31.7761C113.766 31.7761 113.556 31.7741 113.435 31.77C113.314 31.766 113.233 31.764 113.193 31.764H113.078C113.025 31.764 112.93 31.768 112.793 31.7761C112.575 31.7842 112.413 31.7882 112.308 31.7882H112.041C111.993 31.7882 111.969 31.77 111.969 31.7337C111.969 31.6973 111.993 31.6791 112.041 31.6791C112.462 31.6791 112.716 31.6064 112.805 31.461C112.928 31.0738 112.974 30.666 112.938 30.2612V23.6803C112.942 23.5262 112.932 23.3721 112.908 23.2197C112.897 23.1345 112.861 23.0544 112.805 22.9895C112.748 22.9462 112.677 22.9247 112.605 22.9289C112.443 22.9416 112.283 22.97 112.126 23.0137C112.078 23.0218 112.052 23.0076 112.048 22.9713C112.043 22.9349 112.066 22.9127 112.114 22.9046C112.313 22.8651 112.508 22.8062 112.696 22.7289C112.958 22.6106 113.209 22.4707 113.447 22.3108C113.463 22.2946 113.494 22.2946 113.538 22.3108C113.583 22.3269 113.605 22.3471 113.605 22.3714V23.6076C113.916 23.2109 114.306 22.8829 114.75 22.6441C115.162 22.4249 115.622 22.3104 116.089 22.3108C116.436 22.3051 116.78 22.3748 117.097 22.515C117.414 22.6552 117.696 22.8626 117.925 23.1228C118.428 23.6794 118.695 24.4093 118.671 25.1589C118.672 25.6003 118.583 26.0373 118.41 26.4435C118.234 26.8589 117.981 27.2372 117.665 27.5585ZM118.016 25.5467C118.044 24.8076 117.815 24.0818 117.368 23.4924C117.17 23.2306 116.912 23.0199 116.615 22.8776C116.319 22.7354 115.994 22.6657 115.665 22.6744C115.276 22.6746 114.893 22.7703 114.55 22.9531C114.184 23.1477 113.862 23.4159 113.605 23.7409V27.4737C113.943 27.7432 114.316 27.9654 114.714 28.1342C115.038 28.2701 115.386 28.3421 115.738 28.3463C116.054 28.3552 116.367 28.2902 116.653 28.1566C116.939 28.023 117.19 27.8244 117.386 27.5767C117.829 26.9953 118.052 26.2764 118.016 25.5467ZM123.482 26.6253C123.215 27.1356 122.844 27.5837 122.392 27.9403C122.002 28.3324 121.487 28.5749 120.937 28.625C120.518 28.6422 120.107 28.5017 119.786 28.2311C119.642 28.1103 119.527 27.9589 119.45 27.788C119.372 27.6171 119.334 27.4311 119.337 27.2434C119.348 26.9949 119.415 26.7519 119.532 26.5327C119.65 26.3134 119.815 26.1234 120.016 25.9769C120.665 25.4862 121.39 25.1035 122.161 24.8438L123.567 24.3105C123.59 23.7999 123.461 23.294 123.197 22.8562C123.062 22.7016 122.892 22.5815 122.702 22.5056C122.511 22.4298 122.305 22.4004 122.101 22.4199C121.941 22.4185 121.782 22.4389 121.628 22.4805C121.472 22.5249 121.322 22.5859 121.18 22.6622C121.053 22.7474 120.937 22.8471 120.834 22.9592C120.662 23.1708 120.514 23.4004 120.392 23.6439C120.341 23.7418 120.266 23.8252 120.174 23.8863C120.079 23.9314 119.975 23.9522 119.871 23.9469C119.773 23.953 119.676 23.9297 119.592 23.8803C119.562 23.8618 119.537 23.8359 119.52 23.8051C119.503 23.7743 119.495 23.7397 119.495 23.7045C119.501 23.6155 119.535 23.5307 119.592 23.4621C119.672 23.3574 119.766 23.2637 119.871 23.1834C120.215 22.9248 120.595 22.7167 120.998 22.5653C121.379 22.4071 121.785 22.3208 122.198 22.3108C122.473 22.2931 122.75 22.3318 123.011 22.4245C123.271 22.5172 123.51 22.662 123.713 22.8501C123.9 23.0591 124.044 23.3035 124.135 23.5688C124.227 23.8342 124.264 24.1152 124.246 24.3953C124.246 24.5731 124.242 24.7791 124.234 25.0134C124.226 25.2477 124.213 25.6113 124.197 26.1042C124.173 26.5082 124.159 26.795 124.155 26.9647C124.151 27.1343 124.149 27.2757 124.149 27.3888C124.137 27.6168 124.168 27.8449 124.24 28.0615C124.257 28.1211 124.293 28.1737 124.342 28.2118C124.391 28.2499 124.45 28.2715 124.512 28.2736C124.673 28.2485 124.817 28.1641 124.918 28.0372C125.065 27.8961 125.179 27.7244 125.252 27.5343C125.254 27.5223 125.26 27.5113 125.268 27.5022C125.277 27.4932 125.287 27.4865 125.299 27.4828C125.31 27.4792 125.323 27.4786 125.335 27.4813C125.347 27.4839 125.358 27.4896 125.367 27.4979C125.379 27.5036 125.389 27.5119 125.397 27.5222C125.406 27.5324 125.411 27.5444 125.414 27.5573C125.417 27.5701 125.417 27.5834 125.414 27.5962C125.411 27.609 125.405 27.621 125.397 27.6312C125.214 27.8796 124.998 28.1019 124.755 28.2917C124.573 28.4677 124.339 28.5803 124.088 28.6129C123.995 28.6193 123.901 28.6028 123.816 28.5647C123.73 28.5267 123.655 28.4684 123.597 28.3948C123.476 28.2036 123.418 27.9785 123.434 27.7524C123.434 27.5989 123.438 27.409 123.446 27.1828C123.454 26.9566 123.466 26.7707 123.482 26.6253ZM120.004 26.9525C120 27.1235 120.033 27.2932 120.101 27.4501C120.169 27.607 120.271 27.7474 120.398 27.8615C120.667 28.1065 121.022 28.2369 121.386 28.2251C121.595 28.2187 121.799 28.1604 121.979 28.0554C122.217 27.922 122.437 27.7591 122.634 27.5706C122.839 27.3736 123.025 27.1587 123.191 26.9283C123.321 26.7681 123.423 26.588 123.494 26.395C123.511 26.1931 123.527 25.9082 123.543 25.5406C123.559 25.173 123.567 24.8478 123.567 24.565V24.3953L122.149 24.9649C121.531 25.1768 120.955 25.4946 120.446 25.9042C120.304 26.0385 120.191 26.2011 120.114 26.3817C120.038 26.5622 120.001 26.7566 120.004 26.9525ZM130.778 27.5585C130.455 27.8839 130.075 28.1468 129.657 28.3342C129.264 28.515 128.836 28.6101 128.403 28.6129C128.108 28.6135 127.815 28.5768 127.53 28.5038C127.246 28.4307 126.973 28.3207 126.718 28.1766V31.6791H127.676C127.724 31.6791 127.748 31.6973 127.748 31.7337C127.748 31.77 127.724 31.7882 127.676 31.7882H127.56C127.5 31.7882 127.373 31.7842 127.179 31.7761C126.88 31.7761 126.67 31.7741 126.548 31.77C126.427 31.766 126.346 31.764 126.306 31.764H126.191C126.138 31.764 126.044 31.768 125.906 31.7761C125.688 31.7842 125.526 31.7882 125.421 31.7882H125.155C125.106 31.7882 125.082 31.77 125.082 31.7337C125.082 31.6973 125.106 31.6791 125.155 31.6791C125.575 31.6791 125.829 31.6064 125.918 31.461C126.042 31.0738 126.087 30.666 126.052 30.2612V23.6803C126.055 23.5262 126.045 23.3721 126.021 23.2197C126.01 23.1345 125.975 23.0544 125.918 22.9895C125.861 22.9462 125.79 22.9247 125.718 22.9289C125.556 22.9416 125.396 22.97 125.24 23.0137C125.191 23.0218 125.165 23.0076 125.161 22.9713C125.157 22.9349 125.179 22.9127 125.227 22.9046C125.427 22.8651 125.621 22.8062 125.809 22.7289C126.071 22.6106 126.322 22.4707 126.561 22.3108C126.577 22.2946 126.607 22.2946 126.652 22.3108C126.696 22.3269 126.718 22.3471 126.718 22.3714V23.6076C127.029 23.2109 127.419 22.8829 127.863 22.6441C128.276 22.4249 128.736 22.3104 129.203 22.3108C129.549 22.3051 129.893 22.3748 130.21 22.515C130.527 22.6552 130.81 22.8626 131.039 23.1228C131.541 23.6794 131.809 24.4093 131.784 25.1589C131.785 25.6003 131.696 26.0373 131.524 26.4435C131.348 26.8589 131.095 27.2372 130.778 27.5585ZM131.13 25.5467C131.157 24.8076 130.928 24.0818 130.481 23.4924C130.283 23.2306 130.025 23.0199 129.729 22.8776C129.433 22.7354 129.107 22.6657 128.778 22.6744C128.39 22.6746 128.007 22.7703 127.663 22.9531C127.297 23.1477 126.976 23.4159 126.718 23.7409V27.4737C127.056 27.7432 127.429 27.9654 127.827 28.1342C128.152 28.2701 128.499 28.3421 128.851 28.3463C129.167 28.3552 129.48 28.2902 129.766 28.1566C130.053 28.023 130.304 27.8244 130.499 27.5767C130.942 26.9953 131.165 26.2764 131.13 25.5467ZM137.929 28.0554C137.657 28.2359 137.361 28.3767 137.05 28.4735C136.746 28.5667 136.429 28.6136 136.111 28.6129C135.703 28.6323 135.296 28.5711 134.912 28.4328C134.529 28.2945 134.176 28.0818 133.875 27.807C133.594 27.5334 133.373 27.2036 133.228 26.8393C133.083 26.4749 133.016 26.084 133.032 25.6921C133.029 25.249 133.116 24.8098 133.287 24.4013C133.459 23.9929 133.713 23.6238 134.032 23.3167C134.33 22.9989 134.689 22.7457 135.088 22.5726C135.487 22.3996 135.918 22.3104 136.353 22.3108C136.916 22.2777 137.472 22.4404 137.929 22.7713C138.102 22.8939 138.241 23.058 138.335 23.2486C138.428 23.4392 138.472 23.6501 138.462 23.8621C138.463 23.9283 138.448 23.9938 138.42 24.0536C138.391 24.1134 138.35 24.166 138.298 24.2075C138.163 24.2937 138.004 24.3341 137.844 24.3226H133.747C133.698 24.4889 133.664 24.6592 133.644 24.8316C133.624 25.0167 133.614 25.2029 133.614 25.3891C133.606 25.7527 133.674 26.1139 133.815 26.4491C133.956 26.7844 134.166 27.086 134.432 27.3343C134.712 27.5961 135.041 27.8 135.399 27.9341C135.758 28.0683 136.14 28.1301 136.523 28.116C137.201 28.1298 137.863 27.9069 138.395 27.4858C138.996 26.9656 139.456 26.303 139.734 25.5588C139.767 25.4942 139.795 25.4679 139.819 25.48C139.844 25.4921 139.844 25.5265 139.819 25.583C139.615 26.1 139.342 26.5872 139.007 27.0313C138.709 27.4319 138.344 27.7783 137.929 28.0554ZM137.662 23.6803C137.658 23.521 137.616 23.365 137.541 23.2249C137.465 23.0849 137.357 22.9647 137.226 22.8743C136.897 22.6319 136.495 22.51 136.087 22.5289C135.567 22.5148 135.056 22.6701 134.632 22.9713C134.216 23.2839 133.913 23.7246 133.772 24.2257C134.386 24.2257 135.087 24.2176 135.874 24.2014L137.08 24.1772C137.181 24.1685 137.28 24.1502 137.377 24.1226C137.445 24.1095 137.509 24.0827 137.565 24.0439C137.6 23.999 137.624 23.9474 137.638 23.8924C137.655 23.823 137.663 23.7517 137.662 23.6803ZM139.977 28.4796C139.807 28.4877 139.678 28.4917 139.589 28.4917H139.347C139.298 28.4917 139.274 28.4735 139.274 28.4372C139.274 28.4008 139.298 28.3826 139.347 28.3826C139.589 28.3826 139.741 28.318 139.801 28.1887C139.887 27.8155 139.918 27.4316 139.892 27.0495V20.105C139.918 19.8502 139.876 19.5931 139.771 19.3597C139.69 19.2506 139.472 19.2284 139.116 19.293C139.068 19.3011 139.044 19.287 139.044 19.2506C139.044 19.2143 139.068 19.192 139.116 19.184C139.371 19.1399 139.621 19.0709 139.862 18.9779C140.048 18.904 140.222 18.8018 140.377 18.6749C140.393 18.6507 140.427 18.6446 140.48 18.6568C140.532 18.6689 140.559 18.6911 140.559 18.7234V27.0495C140.525 27.4407 140.562 27.8348 140.668 28.213C140.74 28.3261 140.926 28.3826 141.225 28.3826C141.274 28.3826 141.298 28.4008 141.298 28.4372C141.298 28.4735 141.274 28.4917 141.225 28.4917H140.989C140.904 28.4917 140.781 28.4877 140.619 28.4796C140.522 28.4715 140.452 28.4675 140.407 28.4675H140.201C140.157 28.4675 140.082 28.4715 139.977 28.4796ZM153.623 26.2254C153.587 26.8017 153.333 27.3428 152.914 27.7403C152.75 27.9592 152.542 28.1413 152.303 28.2749C152.064 28.4085 151.799 28.4906 151.527 28.516C151.192 28.4644 150.88 28.3146 150.63 28.0857C150.125 27.6838 149.651 27.2442 149.212 26.7707C148.925 27.2471 148.546 27.6612 148.097 27.9888C147.718 28.3193 147.241 28.5172 146.74 28.5523C146.51 28.5419 146.284 28.4831 146.079 28.3798C145.873 28.2764 145.691 28.1308 145.546 27.9524C145.199 27.6202 144.997 27.1655 144.982 26.6859C144.996 26.4208 145.063 26.1611 145.179 25.9226C145.296 25.6841 145.46 25.4717 145.661 25.2982C146.067 24.8732 146.605 24.5977 147.188 24.5165C146.836 24.1049 146.522 23.6628 146.249 23.1955C146.074 22.9218 145.968 22.61 145.94 22.2865C145.927 21.9956 145.973 21.7051 146.075 21.4324C146.177 21.1596 146.333 20.9102 146.534 20.6989C146.739 20.4949 146.983 20.3341 147.252 20.2259C147.52 20.1176 147.807 20.0642 148.097 20.0687C148.492 20.0737 148.884 20.1266 149.266 20.2262C149.585 20.279 149.894 20.3813 150.181 20.5292C150.141 20.8928 150.111 21.2483 150.091 21.5957C150.07 21.9432 150.06 22.2825 150.06 22.6138C150.06 22.7107 150.038 22.7592 149.994 22.7592C149.949 22.7592 149.927 22.7107 149.927 22.6138C149.917 22.2691 149.875 21.9262 149.8 21.5897C149.745 21.335 149.64 21.0939 149.491 20.8807C149.344 20.6516 149.139 20.4655 148.897 20.3414C148.644 20.22 148.365 20.1598 148.085 20.1656C147.867 20.1559 147.649 20.1895 147.444 20.2644C147.239 20.3393 147.051 20.454 146.891 20.6019C146.74 20.7474 146.622 20.923 146.544 21.1172C146.466 21.3113 146.429 21.5198 146.437 21.729C146.474 22.1698 146.629 22.5924 146.885 22.9531C147.441 23.765 148.057 24.5347 148.727 25.2558C149.386 26.0193 150.096 26.7361 150.854 27.401C151.202 27.7668 151.652 28.02 152.145 28.1281C152.387 28.1281 152.587 27.9322 152.745 27.5403C152.911 27.1011 152.991 26.6342 152.981 26.1648C152.985 25.7903 152.948 25.4165 152.872 25.0498C152.825 24.7807 152.722 24.5246 152.569 24.2984L151.26 24.2863C150.913 24.2863 150.636 24.2883 150.43 24.2923C150.294 24.2903 150.158 24.3005 150.024 24.3226C149.992 24.3307 149.969 24.3287 149.957 24.3166C149.945 24.3044 149.951 24.2863 149.975 24.262C150.008 24.2216 150.078 24.1267 150.188 23.9772C150.297 23.8277 150.375 23.753 150.424 23.753H151.054C151.353 23.7611 151.567 23.7651 151.696 23.7651H151.987C152.181 23.7651 152.383 23.7611 152.593 23.753C152.735 23.7514 152.877 23.7392 153.017 23.7166C153.051 23.7076 153.087 23.7076 153.12 23.7166C153.133 23.7247 153.122 23.7449 153.09 23.7772C153.05 23.8094 153.013 23.846 152.981 23.8863C152.949 23.9267 152.904 23.9873 152.848 24.0681C152.799 24.1327 152.763 24.1792 152.739 24.2075C152.714 24.2358 152.69 24.262 152.666 24.2863C152.965 24.5244 153.208 24.8241 153.381 25.1649C153.543 25.4947 153.626 25.8578 153.623 26.2254ZM147.249 24.6014C146.795 24.6609 146.369 24.8527 146.024 25.1528C145.729 25.4244 145.551 25.8004 145.528 26.2011C145.565 26.6816 145.776 27.132 146.121 27.4676C146.252 27.6338 146.415 27.7717 146.6 27.8727C146.786 27.9738 146.99 28.036 147.2 28.0554C147.581 28.0436 147.949 27.9097 148.248 27.6737C148.606 27.412 148.902 27.0747 149.115 26.6859C148.856 26.4112 148.646 26.185 148.485 26.0072C148.323 25.8295 148.21 25.7042 148.145 25.6315C148 25.478 147.853 25.3144 147.703 25.1407C147.554 24.967 147.402 24.7872 147.249 24.6014Z" fill="#5B5B5B"/>
<path d="M125.72 37.6777C125.397 38.3109 124.927 38.8577 124.35 39.2726C123.844 39.6497 123.231 39.8571 122.6 39.8652C122.232 39.8791 121.865 39.8179 121.521 39.6852C121.177 39.5526 120.864 39.3514 120.6 39.0938C120.342 38.8326 120.139 38.521 120.006 38.1783C119.873 37.8357 119.811 37.4694 119.825 37.102C119.825 36.6767 119.914 36.2562 120.087 35.8675C120.259 35.4788 120.511 35.1306 120.827 34.8453C121.125 34.5393 121.481 34.2959 121.875 34.1294C122.268 33.9629 122.691 33.8767 123.118 33.8758C123.573 33.8679 124.024 33.9643 124.436 34.1576C124.823 34.3454 125.017 34.5355 125.018 34.7278C125.015 34.774 125.003 34.8191 124.981 34.8599C124.959 34.9006 124.928 34.936 124.891 34.9635C124.812 35.0345 124.71 35.0736 124.603 35.0732C124.538 35.0705 124.475 35.0495 124.422 35.0126C124.318 34.9376 124.221 34.8528 124.134 34.7593C123.936 34.5424 123.699 34.3647 123.435 34.2357C123.211 34.141 122.97 34.094 122.727 34.0976C122.411 34.088 122.097 34.1485 121.807 34.2748C121.517 34.401 121.259 34.5899 121.051 34.8278C120.6 35.3661 120.367 36.0548 120.401 36.7566C120.389 37.1063 120.449 37.4547 120.576 37.7805C120.704 38.1062 120.897 38.4024 121.143 38.6509C121.393 38.8977 121.691 39.0908 122.018 39.2185C122.346 39.3461 122.695 39.4056 123.047 39.3932C123.563 39.4036 124.071 39.2556 124.501 38.969C124.976 38.6219 125.362 38.1676 125.628 37.6431C125.63 37.6335 125.635 37.6245 125.641 37.6166C125.647 37.6087 125.654 37.602 125.663 37.5971C125.67 37.5933 125.678 37.5913 125.686 37.5913C125.694 37.5913 125.702 37.5933 125.709 37.5971C125.715 37.5999 125.721 37.6046 125.725 37.6108C125.73 37.617 125.732 37.6242 125.732 37.6316C125.731 37.6477 125.728 37.6634 125.72 37.6777ZM131.143 36.7911C131.146 37.1904 131.07 37.5863 130.919 37.9559C130.767 38.3255 130.544 38.6614 130.263 38.9442C129.991 39.2394 129.661 39.474 129.293 39.6327C128.925 39.7914 128.527 39.8707 128.126 39.8652C127.747 39.879 127.369 39.8151 127.016 39.6774C126.663 39.5397 126.341 39.3313 126.071 39.0647C125.803 38.7911 125.594 38.4656 125.457 38.1083C125.319 37.751 125.256 37.3694 125.271 36.9869C125.263 36.5805 125.337 36.1768 125.487 35.7992C125.637 35.4216 125.861 35.0777 126.146 34.7878C126.423 34.4929 126.759 34.2596 127.132 34.103C127.505 33.9464 127.906 33.87 128.311 33.8788C128.689 33.8644 129.065 33.9285 129.417 34.0671C129.769 34.2057 130.088 34.4158 130.355 34.6842C130.62 34.9646 130.827 35.2956 130.963 35.6576C131.098 36.0195 131.159 36.405 131.143 36.7911ZM125.962 36.7911C125.943 37.5392 126.178 38.2716 126.628 38.869C126.818 39.1392 127.07 39.3595 127.363 39.5109C127.655 39.6624 127.981 39.7405 128.311 39.7386C128.613 39.7459 128.913 39.6808 129.186 39.5486C129.458 39.4164 129.695 39.221 129.876 38.9787C130.299 38.3988 130.51 37.6919 130.475 36.9753C130.5 36.2158 130.271 35.4695 129.825 34.8544C129.641 34.5868 129.394 34.3684 129.106 34.2182C128.818 34.0681 128.497 33.9909 128.172 33.9933C127.863 33.984 127.556 34.0486 127.277 34.1818C126.998 34.3151 126.754 34.513 126.567 34.7593C126.139 35.3477 125.926 36.0647 125.962 36.7911ZM132.548 39.7386C132.395 39.7463 132.278 39.7501 132.197 39.7501H131.972C131.926 39.7501 131.903 39.7329 131.903 39.6986C131.903 39.6642 131.926 39.6471 131.972 39.6471C132.202 39.6471 132.346 39.5865 132.403 39.4653C132.485 39.1107 132.514 38.746 132.489 38.383V35.6295C132.487 35.4186 132.44 35.2106 132.351 35.0193C132.271 34.8291 132.154 34.6569 132.006 34.5127C131.993 34.5029 131.985 34.4885 131.983 34.4727C131.983 34.461 131.991 34.4515 132.006 34.4442C132.136 34.3839 132.263 34.3165 132.386 34.2424C132.465 34.1951 132.538 34.1392 132.605 34.0758C132.62 34.0604 132.631 34.0545 132.639 34.0582C132.652 34.066 132.664 34.0756 132.674 34.0867C132.819 34.2416 132.929 34.4262 132.996 34.6278C133.079 34.8488 133.122 35.0827 133.123 35.3186C133.419 34.8886 133.794 34.5185 134.228 34.2279C134.589 33.9981 135.009 33.8764 135.437 33.877C135.706 33.8577 135.976 33.9018 136.225 34.0057C136.474 34.1097 136.695 34.2707 136.87 34.4757C137.226 35.0043 137.394 35.6373 137.348 36.273V38.6218C137.348 38.7906 137.351 38.9306 137.359 39.0417C137.365 39.1365 137.376 39.2308 137.394 39.3241C137.41 39.4204 137.456 39.5091 137.526 39.5774C137.641 39.6363 137.771 39.6604 137.9 39.6465C137.946 39.6465 137.969 39.6636 137.969 39.698C137.969 39.7323 137.947 39.7497 137.901 39.7501H137.821C137.78 39.7501 137.7 39.7463 137.578 39.7386C137.387 39.7386 137.25 39.7368 137.17 39.7331C137.09 39.7295 137.03 39.7275 136.991 39.7271H136.899C136.859 39.7271 136.79 39.7309 136.692 39.7386C136.546 39.7463 136.433 39.7501 136.353 39.7501H136.128C136.082 39.7501 136.059 39.7329 136.059 39.6986C136.059 39.6642 136.082 39.6471 136.128 39.6471C136.389 39.6471 136.552 39.578 136.617 39.4398C136.702 39.1525 136.736 38.8523 136.715 38.5533V36.2354C136.753 35.6925 136.616 35.1517 136.323 34.6926C136.186 34.5185 136.009 34.3805 135.806 34.2903C135.604 34.2001 135.382 34.1606 135.161 34.1751C134.785 34.1728 134.417 34.2809 134.102 34.486C133.72 34.7516 133.389 35.0829 133.123 35.4646V39.6459H133.722C133.768 39.6459 133.791 39.663 133.791 39.6974C133.791 39.7317 133.768 39.7493 133.722 39.7501H133.641C133.601 39.7501 133.524 39.7463 133.411 39.7386C133.227 39.7386 133.096 39.7368 133.02 39.7331C132.943 39.7295 132.885 39.7275 132.847 39.7271H132.749C132.707 39.7271 132.64 39.7309 132.548 39.7386ZM140.711 39.7992H140.584C140.568 39.8001 140.553 39.7981 140.538 39.7931C140.528 39.7862 140.52 39.7763 140.515 39.7646L138.569 35.3059C138.435 34.952 138.251 34.6187 138.024 34.3157C137.942 34.2354 137.843 34.1742 137.735 34.1364C137.626 34.0986 137.511 34.0851 137.397 34.097C137.356 34.097 137.337 34.0796 137.339 34.0448C137.341 34.0101 137.36 33.9929 137.397 33.9933H137.494C137.544 33.9933 137.65 33.9972 137.811 34.0049C138.064 34.0049 138.243 34.0069 138.346 34.0109C138.45 34.015 138.517 34.0168 138.548 34.0164H138.893C139.07 34.0087 139.2 34.0049 139.285 34.0049H139.492C139.538 34.0049 139.561 34.0202 139.561 34.0509C139.561 34.0816 139.538 34.097 139.492 34.097C139.139 34.097 138.943 34.1563 138.905 34.2751C138.9 34.5447 138.972 34.81 139.112 35.0405L140.93 39.1278L142.484 35.4665C142.669 35.1463 142.731 34.7695 142.657 34.4072C142.565 34.2 142.312 34.0964 141.897 34.0964C141.851 34.0964 141.828 34.079 141.828 34.0442C141.828 34.0095 141.851 33.9923 141.897 33.9927H142.127C142.22 33.9927 142.361 33.9966 142.552 34.0042C142.69 34.0119 142.786 34.0158 142.839 34.0158H143.11C143.183 34.0158 143.312 34.0119 143.496 34.0042C143.626 33.9966 143.713 33.9927 143.755 33.9927H143.841C143.88 33.9927 143.899 34.0099 143.899 34.0442C143.899 34.0786 143.88 34.096 143.841 34.0964C143.724 34.0956 143.609 34.1211 143.503 34.1709C143.398 34.2207 143.305 34.2936 143.231 34.3842C142.964 34.7261 142.751 35.1066 142.598 35.5125L140.78 39.761C140.771 39.7696 140.761 39.7773 140.751 39.784C140.739 39.792 140.725 39.7962 140.711 39.7962V39.7992ZM145.74 32.1639C145.741 32.2265 145.729 32.2886 145.704 32.3461C145.679 32.4037 145.643 32.4553 145.597 32.4978C145.552 32.5422 145.499 32.5774 145.441 32.6011C145.382 32.6248 145.32 32.6367 145.257 32.636C145.195 32.6369 145.133 32.6252 145.075 32.6014C145.018 32.5777 144.966 32.5424 144.923 32.4978C144.878 32.4545 144.843 32.4026 144.819 32.3452C144.795 32.2877 144.784 32.226 144.785 32.1639C144.784 32.1009 144.796 32.0384 144.82 31.98C144.843 31.9217 144.878 31.8686 144.923 31.824C144.965 31.7779 145.017 31.7413 145.074 31.7166C145.132 31.6918 145.194 31.6795 145.257 31.6803C145.32 31.6798 145.383 31.6923 145.442 31.717C145.5 31.7417 145.553 31.7781 145.597 31.824C145.643 31.8675 145.679 31.92 145.704 31.9783C145.729 32.0365 145.742 32.0993 145.742 32.1627L145.74 32.1639ZM144.959 39.7386C144.767 39.7463 144.623 39.7501 144.527 39.7501H144.28C144.234 39.7501 144.211 39.7329 144.211 39.6986C144.211 39.6642 144.234 39.6471 144.28 39.6471C144.587 39.6471 144.781 39.599 144.861 39.5029C144.971 39.2558 145.013 38.9838 144.982 38.7151V35.2004C145.011 34.9807 144.969 34.7575 144.862 34.5636C144.781 34.4828 144.576 34.4846 144.246 34.569C144.2 34.5844 144.173 34.5767 144.165 34.546C144.158 34.5153 144.178 34.4923 144.226 34.4769C144.443 34.4275 144.655 34.3582 144.859 34.2697C145.079 34.169 145.287 34.0455 145.481 33.9012C145.496 33.8859 145.525 33.8859 145.567 33.9012C145.609 33.9166 145.629 33.9368 145.628 33.9618V38.7139C145.597 38.9826 145.639 39.2546 145.749 39.5016C145.83 39.5978 146.02 39.6459 146.319 39.6459C146.365 39.6459 146.388 39.663 146.388 39.6974C146.388 39.7317 146.364 39.7493 146.316 39.7501H146.08C145.992 39.7501 145.855 39.7463 145.671 39.7386C145.556 39.7309 145.475 39.7271 145.429 39.7271H145.216C145.167 39.7271 145.082 39.7309 144.959 39.7386ZM150.163 38.417C149.966 38.814 149.694 39.1697 149.363 39.4647C149.114 39.7066 148.784 39.849 148.437 39.8652C148.277 39.8784 148.115 39.8521 147.968 39.7888C147.82 39.7254 147.69 39.6268 147.589 39.5016C147.383 39.165 147.288 38.7722 147.318 38.3788V34.4309H146.686C146.679 34.4309 146.675 34.4232 146.675 34.4078C146.674 34.4016 146.675 34.3953 146.677 34.3894C146.679 34.3835 146.682 34.378 146.686 34.3733L147.93 33.0953C147.945 33.0799 147.957 33.0743 147.964 33.0783C147.972 33.0824 147.976 33.0919 147.976 33.1068V34.0049H148.679C148.994 33.9972 149.224 33.9933 149.37 33.9933H149.739C149.806 33.9862 149.873 33.9842 149.94 33.9873C149.975 33.9913 149.992 34.0049 149.992 34.0279C149.992 34.0586 149.957 34.1123 149.888 34.1891C149.8 34.2824 149.704 34.3672 149.6 34.4424H149.082C148.729 34.4347 148.474 34.4309 148.316 34.4309H147.953V38.3224C147.93 38.6586 148.002 38.9944 148.16 39.292C148.225 39.3963 148.318 39.4812 148.427 39.5379C148.536 39.5946 148.659 39.621 148.782 39.6144C148.911 39.6053 149.037 39.5707 149.152 39.5124C149.268 39.4542 149.371 39.3735 149.455 39.275C149.704 39.0117 149.894 38.6986 150.012 38.3564C150.016 38.3463 150.021 38.3371 150.029 38.3292C150.036 38.3214 150.044 38.3151 150.054 38.3108C150.064 38.3065 150.074 38.3042 150.085 38.3041C150.096 38.304 150.106 38.3061 150.116 38.3103C150.163 38.3261 150.179 38.3616 150.163 38.417ZM154.587 39.338C154.329 39.5094 154.048 39.643 153.752 39.7349C153.462 39.823 153.161 39.8669 152.857 39.8652C152.47 39.8837 152.083 39.8255 151.719 39.694C151.354 39.5626 151.019 39.3605 150.733 39.0993C150.466 38.8394 150.257 38.5261 150.119 38.18C149.981 37.8339 149.918 37.4627 149.933 37.0905C149.93 36.6695 150.012 36.2522 150.175 35.8642C150.339 35.4762 150.58 35.1256 150.883 34.8338C151.166 34.532 151.507 34.2914 151.886 34.1271C152.265 33.9627 152.674 33.878 153.088 33.8782C153.622 33.8468 154.151 34.0014 154.584 34.3157C154.749 34.4322 154.882 34.5881 154.97 34.7691C155.059 34.9502 155.1 35.1506 155.091 35.3519C155.092 35.4148 155.078 35.477 155.051 35.5337C155.024 35.5905 154.984 35.6405 154.935 35.6798C154.807 35.7619 154.655 35.8003 154.503 35.7894H150.612C150.565 35.9478 150.533 36.11 150.515 36.2742C150.495 36.4501 150.485 36.6269 150.486 36.8039C150.478 37.1493 150.543 37.4926 150.677 37.8111C150.811 38.1296 151.011 38.4162 151.263 38.6521C151.529 38.9005 151.841 39.0938 152.182 39.221C152.523 39.3482 152.885 39.4067 153.249 39.3932C153.894 39.4063 154.523 39.1946 155.028 38.7945C155.599 38.3003 156.036 37.6709 156.301 36.9638C156.331 36.9024 156.358 36.8776 156.381 36.8893C156.404 36.901 156.404 36.9335 156.381 36.9869C156.187 37.4779 155.927 37.9406 155.61 38.3624C155.326 38.7432 154.979 39.0723 154.584 39.3356L154.587 39.338ZM154.334 35.1817C154.33 35.0304 154.29 34.8823 154.218 34.7493C154.146 34.6163 154.044 34.5022 153.919 34.4163C153.607 34.1859 153.225 34.07 152.837 34.0879C152.343 34.0746 151.858 34.2222 151.455 34.5084C151.06 34.8055 150.772 35.2243 150.638 35.7004C151.221 35.7004 151.888 35.6927 152.637 35.6773L153.783 35.6543C153.878 35.6459 153.972 35.6285 154.065 35.6022C154.128 35.5898 154.189 35.5644 154.243 35.5277C154.276 35.4849 154.299 35.4358 154.312 35.3834C154.327 35.3165 154.334 35.2479 154.331 35.1792L154.334 35.1817ZM160.687 38.1382C160.691 38.3742 160.643 38.6082 160.544 38.8226C160.445 39.0371 160.299 39.2264 160.117 39.3762C159.709 39.712 159.191 39.886 158.663 39.8652C158.476 39.8656 158.29 39.8561 158.105 39.8368C157.924 39.8176 157.744 39.7887 157.566 39.7501C157.36 39.7034 157.156 39.6457 156.956 39.5774C156.726 39.5006 156.585 39.4546 156.532 39.4392C156.507 39.4341 156.486 39.4195 156.471 39.3986C156.458 39.368 156.452 39.3345 156.455 39.3011V39.1193C156.462 38.866 156.468 38.5991 156.471 38.3188C156.475 38.0384 156.477 37.7179 156.477 37.3571C156.477 37.3187 156.492 37.2995 156.523 37.2995C156.554 37.2995 156.569 37.3187 156.569 37.3571C156.564 37.7118 156.603 38.0657 156.684 38.4109C156.743 38.6774 156.861 38.9274 157.03 39.1423C157.196 39.3569 157.423 39.5171 157.68 39.6028C157.999 39.7143 158.335 39.768 158.672 39.7616C159.087 39.7887 159.499 39.673 159.84 39.4338C159.975 39.324 160.083 39.1839 160.154 39.0248C160.225 38.8657 160.257 38.6921 160.249 38.5182C160.253 38.3208 160.199 38.1264 160.093 37.96C159.966 37.7824 159.798 37.6381 159.604 37.5395C159.475 37.4721 159.342 37.4126 159.206 37.3613C159.056 37.3036 158.797 37.2171 158.429 37.102C157.858 36.968 157.319 36.7257 156.84 36.3882C156.716 36.277 156.618 36.14 156.552 35.9869C156.486 35.8337 156.455 35.6681 156.46 35.5016C156.454 35.2706 156.506 35.0418 156.61 34.8358C156.715 34.6297 156.869 34.4529 157.059 34.3212C157.496 34.0138 158.022 33.8582 158.557 33.8782C158.818 33.8782 159.06 33.8877 159.284 33.9067C159.508 33.9257 159.888 33.9891 160.424 34.097C160.446 34.1014 160.467 34.1112 160.484 34.1254C160.497 34.1429 160.503 34.1645 160.501 34.186C160.501 34.2474 160.499 34.3396 160.496 34.4624C160.492 34.5852 160.486 34.7963 160.479 35.0956C160.471 35.4103 160.465 35.6349 160.461 35.7695C160.457 35.904 160.455 36.005 160.456 36.0724C160.456 36.1185 160.44 36.1415 160.41 36.1415C160.379 36.1415 160.364 36.1185 160.364 36.0724C160.368 35.7734 160.343 35.4747 160.289 35.1804C160.253 34.9643 160.172 34.7581 160.053 34.5745C159.91 34.3651 159.704 34.2061 159.466 34.12C159.167 34.01 158.851 33.9574 158.533 33.9649C158.113 33.9454 157.696 34.0509 157.336 34.2678C157.194 34.3507 157.077 34.4694 156.997 34.6118C156.916 34.7543 156.874 34.9155 156.875 35.0792C156.874 35.2201 156.904 35.3595 156.964 35.4871C157.023 35.6147 157.111 35.7271 157.22 35.8161C157.673 36.1216 158.176 36.3456 158.706 36.4778C159.113 36.6083 159.403 36.7081 159.576 36.7772C159.725 36.8348 159.87 36.9041 160.008 36.9844C160.219 37.1041 160.397 37.2742 160.526 37.4795C160.638 37.6806 160.693 37.9082 160.687 38.1382Z" fill="#5B5B5B"/>
<path d="M42.8852 30.4484C42.8944 31.6884 42.6574 32.9178 42.1879 34.0655C41.7183 35.2132 41.0256 36.2562 40.1498 37.1341C39.3082 38.051 38.2823 38.7798 37.1395 39.2727C35.9966 39.7656 34.7625 40.0115 33.518 39.9943C32.341 40.037 31.1678 39.8387 30.0702 39.4115C28.9727 38.9842 27.9742 38.3371 27.1359 37.5098C26.3041 36.6601 25.6548 35.6494 25.2275 34.5397C24.8003 33.4301 24.6042 32.2449 24.6514 31.0568C24.6275 29.795 24.8555 28.541 25.3221 27.3684C25.7886 26.1958 26.4844 25.128 27.3686 24.2274C28.2282 23.3115 29.2708 22.5867 30.4288 22.1001C31.5868 21.6135 32.8343 21.376 34.0901 21.403C35.2634 21.3585 36.4331 21.558 37.5254 21.9888C38.6177 22.4195 39.6087 23.0723 40.4358 23.9057C41.2617 24.7765 41.9041 25.8044 42.3248 26.9283C42.7456 28.0523 42.9361 29.2493 42.8852 30.4484ZM26.7965 30.4484C26.7384 32.7721 27.4693 35.0471 28.8702 36.902C29.4574 37.7402 30.239 38.4237 31.1481 38.8937C32.0571 39.3638 33.0666 39.6065 34.0901 39.601C35.0299 39.6237 35.9616 39.4214 36.8074 39.011C37.6533 38.6005 38.3887 37.9938 38.9524 37.2413C40.1918 35.6682 40.8115 33.5946 40.8115 31.0204C40.8871 28.6642 40.1766 26.3498 38.7918 24.442C38.221 23.6096 37.4548 22.9299 36.5603 22.4624C35.6658 21.9949 34.6703 21.7539 33.661 21.7605C32.7005 21.7313 31.7468 21.9318 30.8794 22.3453C30.012 22.7589 29.2558 23.3736 28.6739 24.1384C27.4223 25.7232 26.7965 27.8265 26.7965 30.4484ZM46.5319 39.601C45.9599 39.6248 45.5308 39.6368 45.2448 39.6368H44.494C44.351 39.6368 44.2795 39.5832 44.2795 39.4762C44.2795 39.3691 44.351 39.3156 44.494 39.3156C45.3759 39.3156 45.936 39.1964 46.1744 38.9581C46.4127 38.7197 46.5319 37.9332 46.5319 36.5984V23.1191H44.8158C44.6942 23.1269 44.5723 23.1087 44.4583 23.0658C44.4263 23.0529 44.399 23.0307 44.3799 23.002C44.3608 22.9734 44.3507 22.9397 44.351 22.9052L45.1733 21.7969H46.6034C46.7825 19.1192 47.8379 16.575 49.6066 14.5567C50.3349 13.6768 51.2465 12.9665 52.2778 12.4755C53.3091 11.9845 54.4351 11.7246 55.5773 11.7141C56.2805 11.7 56.9828 11.772 57.6685 11.9286C58.23 12.0716 58.5108 12.2504 58.5108 12.4649C58.4811 12.8375 58.3071 13.1838 58.026 13.4302C57.8946 13.5824 57.7329 13.7055 57.5513 13.7917C57.3696 13.8778 57.172 13.9252 56.971 13.9307C56.7792 13.9284 56.5879 13.9103 56.399 13.8768C56.1845 13.8408 55.8508 13.7633 55.3979 13.6441C54.7067 13.5011 54.1704 13.4001 53.7891 13.3411C53.4225 13.2826 53.0519 13.2526 52.6807 13.2514C51.3221 13.2514 50.2853 13.9786 49.5703 15.4329C48.8552 16.8873 48.4977 19.0082 48.4977 21.7957H56.4359V23.1185H48.4977V36.5978C48.5215 37.8611 48.6468 38.6296 48.8734 38.9035C49.1 39.1774 49.809 39.3146 51.0004 39.315C51.1434 39.315 51.2149 39.3685 51.2149 39.4756C51.2149 39.5826 51.1436 39.6364 51.001 39.6368H50.2132C49.9033 39.6368 49.4266 39.6248 48.7831 39.601C48.3791 39.5772 48.0992 39.5653 47.9432 39.5653H47.2827C47.1397 39.5653 46.8894 39.5772 46.5319 39.601ZM55.9706 39.601C55.3985 39.6248 54.9695 39.6368 54.6835 39.6368H53.9327C53.7897 39.6368 53.7182 39.5832 53.7182 39.4762C53.7182 39.3691 53.7897 39.3156 53.9327 39.3156C54.8146 39.3156 55.3747 39.1964 55.613 38.9581C55.8514 38.7197 55.9706 37.9332 55.9706 36.5984V23.1191H54.2544C54.1328 23.1269 54.011 23.1087 53.8969 23.0658C53.865 23.0529 53.8377 23.0307 53.8185 23.002C53.7994 22.9734 53.7893 22.9397 53.7897 22.9052L54.612 21.7969H56.0778C56.3449 19.2921 57.4466 16.9499 59.2059 15.1469C59.9646 14.3103 60.8885 13.6401 61.9193 13.1785C62.9501 12.7168 64.0653 12.4739 65.1947 12.4649C65.8919 12.4553 66.5879 12.5273 67.2683 12.6794C67.8642 12.8224 68.1622 13.0012 68.1622 13.2157C68.1354 13.5848 67.9692 13.9299 67.6974 14.181C67.5649 14.3364 67.4006 14.4615 67.2155 14.5479C67.0304 14.6342 66.829 14.6798 66.6248 14.6815C66.4388 14.6797 66.2532 14.6616 66.0703 14.6276C65.8683 14.5921 65.5407 14.5147 65.0874 14.3955C64.5834 14.2384 64.0699 14.1131 63.5501 14.0204C63.1835 13.9621 62.8129 13.9323 62.4418 13.9313C61.7501 13.9253 61.0708 14.1151 60.4824 14.4789C59.894 14.8426 59.4206 15.3654 59.1168 15.9868C58.3302 17.3575 57.9369 19.294 57.9369 21.7963C58.1678 21.7716 58.3998 21.7597 58.632 21.7605H61.6534C61.8555 21.7555 62.0578 21.7614 62.2594 21.7781C62.3309 21.7902 62.3666 21.8082 62.3666 21.832C62.3298 21.9739 62.2557 22.1034 62.1521 22.2071C62.0091 22.3861 61.7112 22.702 61.2583 23.1549C60.9246 23.131 60.5491 23.1191 60.1318 23.1191H57.9369V36.5978C57.9608 37.8611 58.0858 38.6296 58.312 38.9035C58.5383 39.1774 59.2473 39.3146 60.439 39.315C60.582 39.315 60.6535 39.3685 60.6535 39.4756C60.6535 39.5826 60.5822 39.6364 60.4396 39.6368H59.6519C59.342 39.6368 58.8653 39.6248 58.2218 39.601C57.8178 39.5772 57.5376 39.5653 57.3813 39.5653H56.7214C56.5784 39.5653 56.3281 39.5772 55.9706 39.601ZM65.5522 39.601C64.9563 39.6248 64.5154 39.6368 64.2294 39.6368H63.4798C63.3368 39.6368 63.2653 39.5832 63.2653 39.4762C63.2653 39.3691 63.3368 39.3154 63.4798 39.315C64.4332 39.315 65.0349 39.1659 65.285 38.8678C65.5351 38.5696 65.6605 37.7534 65.6613 36.419V25.6575C65.6613 24.6565 65.5243 24.0248 65.2504 23.7627C64.9765 23.5005 64.3504 23.4886 63.3719 23.7269C63.2289 23.7507 63.1396 23.715 63.1041 23.6197C63.0685 23.5243 63.1221 23.4637 63.2647 23.4379C64.0441 23.2756 64.8004 23.0175 65.5165 22.6695C66.1109 22.355 66.6535 21.9512 67.1253 21.4721C67.173 21.4244 67.2683 21.4186 67.4114 21.4545C67.5544 21.4905 67.6259 21.5559 67.6259 21.6508V36.419C67.6259 37.73 67.7509 38.5404 68.001 38.8502C68.251 39.1601 68.8528 39.315 69.8062 39.315C69.9492 39.315 70.0207 39.3685 70.0207 39.4756C70.0207 39.5826 69.9494 39.6364 69.8068 39.6368H69.0548C68.7687 39.6368 68.3397 39.6248 67.7677 39.601C67.4101 39.5772 67.1599 39.5653 67.0169 39.5653H66.357C66.2018 39.5653 65.9336 39.5772 65.5522 39.601ZM89.7566 33.2013C88.7533 35.1674 87.2946 36.8652 85.5021 38.1533C83.93 39.3246 82.028 39.9689 80.0677 39.9943C78.9254 40.0363 77.7865 39.8457 76.7202 39.4339C75.6539 39.0221 74.6825 38.3978 73.865 37.5989C73.0605 36.7882 72.4311 35.8209 72.0159 34.7569C71.6007 33.6929 71.4086 32.555 71.4514 31.4137C71.4513 30.0931 71.728 28.7872 72.2638 27.5802C72.7996 26.3732 73.5824 25.292 74.5618 24.4062C75.4881 23.4572 76.5946 22.7027 77.8163 22.187C79.038 21.6713 80.3505 21.4047 81.6766 21.403C83.0902 21.3785 84.4906 21.6781 85.7705 22.2786C86.9744 22.8628 87.5761 23.4528 87.5757 24.0487C87.5686 24.1923 87.5297 24.3326 87.4616 24.4593C87.3936 24.586 87.2983 24.696 87.1825 24.7813C86.937 25.0015 86.6184 25.1227 86.2887 25.1213C86.0846 25.1164 85.8861 25.0533 85.7166 24.9395C85.394 24.7063 85.0946 24.4425 84.8228 24.1517C84.2119 23.472 83.4778 22.914 82.6595 22.5071C81.9641 22.2131 81.2152 22.067 80.4604 22.0781C79.4795 22.049 78.5043 22.2375 77.6049 22.6301C76.7056 23.0227 75.9043 23.6096 75.2587 24.3486C73.9118 25.8624 73.2384 27.8586 73.2384 30.3375C73.2015 31.4232 73.387 32.505 73.7837 33.5164C74.1803 34.5277 74.7796 35.4473 75.5447 36.2185C76.3217 36.9859 77.2473 37.5864 78.2648 37.983C79.2823 38.3796 80.3701 38.564 81.4615 38.5248C83.069 38.5569 84.6476 38.0952 85.9845 37.202C87.4531 36.1241 88.6474 34.7156 89.4706 33.0904C89.4781 33.0606 89.4914 33.0326 89.5098 33.0081C89.5282 32.9835 89.5514 32.9629 89.5779 32.9474C89.5999 32.9357 89.6245 32.9296 89.6494 32.9296C89.6743 32.9296 89.6989 32.9357 89.7209 32.9474C89.7422 32.956 89.7604 32.9709 89.7732 32.99C89.7859 33.0092 89.7926 33.0317 89.7924 33.0547C89.7924 33.1057 89.7802 33.156 89.7566 33.2013ZM102.377 38.3521C101.576 38.8844 100.703 39.2997 99.7849 39.5853C98.887 39.8592 97.9531 39.9971 97.0144 39.9943C94.2734 39.9943 92.0747 39.2019 90.4184 37.617C89.5892 36.8095 88.9394 35.8363 88.5113 34.7609C88.0832 33.6855 87.8865 32.532 87.9339 31.3755C87.9232 30.0683 88.1792 28.7726 88.6865 27.5677C89.1937 26.3628 89.9413 25.274 90.8838 24.368C91.7607 23.4302 92.821 22.6827 93.999 22.1719C95.1769 21.6611 96.4473 21.3979 97.7313 21.3988C99.7108 21.3988 101.26 21.8516 102.379 22.7574C102.89 23.1187 103.303 23.6027 103.578 24.1649C103.853 24.7272 103.983 25.3497 103.955 25.9751C103.956 26.1705 103.913 26.3637 103.829 26.5402C103.745 26.7167 103.623 26.8717 103.47 26.9937C103.071 27.2481 102.601 27.3671 102.129 27.3331H90.0427C89.8972 27.8236 89.7958 28.3261 89.7397 28.8347C89.679 29.3808 89.6493 29.9298 89.6506 30.4793C89.6259 31.5519 89.8281 32.6176 90.244 33.6065C90.66 34.5955 91.2803 35.4854 92.0642 36.2179C92.8891 36.9902 93.8587 37.5916 94.9172 37.9874C95.9756 38.3832 97.1019 38.5657 98.2312 38.5242C100.232 38.5651 102.184 37.9087 103.753 36.6675C105.315 35.4281 106.632 33.5332 107.704 30.9828C107.8 30.7922 107.883 30.7146 107.955 30.7502C108.026 30.7857 108.026 30.8867 107.955 31.0531C107.351 32.5782 106.546 34.0151 105.559 35.3253C104.68 36.5083 103.603 37.5313 102.377 38.3497V38.3521ZM101.589 25.4448C101.578 24.9751 101.455 24.5147 101.231 24.1015C101.008 23.6882 100.689 23.3337 100.302 23.067C99.3321 22.3521 98.1456 21.9924 96.9417 22.0484C95.408 22.0067 93.9023 22.4646 92.6514 23.353C91.4229 24.2754 90.5312 25.5755 90.113 27.0537C91.9244 27.0537 93.992 27.0299 96.3157 26.9822C98.6394 26.9345 99.8257 26.9109 99.8746 26.9113C100.171 26.8855 100.465 26.8315 100.751 26.7501C100.949 26.7115 101.138 26.6325 101.305 26.518C101.407 26.3855 101.48 26.2332 101.519 26.0708C101.57 25.8655 101.594 25.6545 101.591 25.443L101.589 25.4448Z" fill="#5B5B5B"/>
<path d="M35.2412 12.3152C32.5986 12.3073 30.0087 13.6047 27.6357 15.7002C26.3592 14.8207 25.2391 13.7337 24.3216 12.4843C24.1097 12.182 23.9216 11.8637 23.7592 11.5323C24.4755 11.6742 25.2113 11.6876 25.9322 11.5717C26.8005 11.4244 27.6175 11.06 28.3071 10.5122C28.9967 9.96446 29.5366 9.25121 29.8766 8.43879C30.1795 7.77805 30.227 7.02851 30.0098 6.33482C29.9037 6.06016 29.739 5.81193 29.5272 5.60735C29.3154 5.40277 29.0615 5.24676 28.7834 5.15017C26.9333 4.43754 24.0046 5.61919 23.0157 8.19276C22.668 8.94956 22.584 9.80101 22.777 10.6112C21.8337 10.2591 20.9703 9.72221 20.2373 9.03204C21.2931 7.78492 21.8276 6.17889 21.7298 4.54782C21.6535 2.28087 20.8924 0.77746 19.7962 0.717468H19.7428H19.7216C18.6206 0.784731 17.8607 2.28877 17.7825 4.54542C17.6848 6.17835 18.2197 7.78618 19.2763 9.03508C18.5431 9.72357 17.6802 10.2591 16.7378 10.6106C16.9308 9.8078 16.8489 8.96348 16.5051 8.21277C15.5083 5.62102 12.5814 4.43815 10.729 5.15017C10.4508 5.24687 10.197 5.4029 9.98508 5.60746C9.77319 5.81203 9.60831 6.0602 9.50189 6.33482C9.28511 7.03652 9.33604 7.79367 9.64488 8.45999C9.98597 9.26778 10.5254 9.97646 11.2131 10.5204C11.9009 11.0643 12.7148 11.4259 13.5795 11.5717C14.3007 11.6866 15.0365 11.6733 15.7531 11.5323C15.5907 11.8636 15.4029 12.1819 15.1914 12.4843C14.3002 13.7006 13.2152 14.7623 11.9797 15.6269C9.31343 13.4417 6.58652 12.3152 4.3523 12.3152H4.28868C1.23518 12.211 0.0735367 13.7193 0.00384968 15.1754C-0.0852285 17.0539 1.60299 19.1633 4.25292 19.3184C6.12538 19.4663 9.25646 18.278 11.9373 16.4346C15.3667 19.6166 18.0193 23.5439 19.6901 27.9136L19.9828 28.6807L20.2761 27.9136C21.9043 23.659 24.5652 19.3839 27.669 16.4982C30.3274 18.3047 33.3997 19.4626 35.2552 19.319C37.9111 19.1627 39.5994 17.0509 39.5103 15.1754C39.4413 13.7211 38.2796 12.2019 35.24 12.3152M4.29416 18.6919C2.00903 18.5579 0.555298 16.7806 0.629833 15.2045C0.698308 13.7732 1.94234 12.9376 3.98932 12.9376C4.08446 12.9376 4.18143 12.9375 4.27899 12.943C6.67138 12.9127 9.14679 14.1047 11.4368 16.0056C8.91712 17.706 6.00846 18.8167 4.29416 18.6919ZM23.5932 8.43757C24.5361 5.9858 27.1636 5.19986 28.5573 5.73554C28.7515 5.8024 28.9291 5.9101 29.078 6.05144C29.227 6.19277 29.3439 6.36444 29.4209 6.55481C29.5806 7.0968 29.5375 7.67842 29.2996 8.19095C28.9982 8.90505 28.5224 9.53207 27.9158 10.0145C27.3091 10.497 26.5911 10.8195 25.8274 10.9524C25.0448 11.0755 24.2451 11.0342 23.4793 10.8312C23.2092 10.0489 23.2504 9.19272 23.5944 8.44001M18.4127 4.56783C18.4824 2.50085 19.1399 1.38159 19.7562 1.34341C20.3731 1.37674 21.0336 2.49478 21.1021 4.57145C21.1935 6.04747 20.7118 7.50185 19.7574 8.63149C18.8038 7.50138 18.3222 6.04735 18.4127 4.57145M13.6861 10.9572C12.9262 10.8259 12.2112 10.5064 11.6063 10.0279C11.0015 9.54935 10.5262 8.92701 10.2236 8.21762C9.97926 7.69987 9.93251 7.11069 10.0921 6.56088C10.1689 6.37053 10.2857 6.19888 10.4346 6.05754C10.5835 5.9162 10.7609 5.80847 10.955 5.74161C11.2588 5.63102 11.5801 5.57678 11.9033 5.58161C12.7847 5.60801 13.6382 5.89629 14.355 6.40968C15.0718 6.92308 15.6195 7.63834 15.9282 8.46424C16.2678 9.21114 16.3064 10.0602 16.0361 10.8348C15.2697 11.0378 14.4694 11.0791 13.6861 10.956M19.9834 26.9537C18.3572 22.7894 15.7881 19.0586 12.4778 16.054C13.7202 15.1658 14.8114 14.0832 15.7095 12.8479C16.0373 12.3828 16.3083 11.8801 16.5166 11.3505C17.7298 10.977 18.8391 10.3254 19.7562 9.44773C20.6736 10.3256 21.7833 10.9772 22.9969 11.3505C23.2047 11.8802 23.4755 12.3829 23.8035 12.8479C24.7324 14.1228 25.865 15.2361 27.1557 16.1431C24.0479 19.2162 21.6062 22.8964 19.9828 26.9543M35.2134 18.6985C33.5209 18.8227 30.6564 17.7375 28.1562 16.0662C30.3619 14.1489 32.7701 12.9491 35.1788 12.9491H35.2485C37.444 12.86 38.8116 13.712 38.8844 15.2105C38.9595 16.7861 37.5052 18.5634 35.2146 18.6985" fill="#5B5B5B"/>
</svg>
