<svg width="225" height="56" viewBox="0 0 225 56" fill="none" xmlns="http://www.w3.org/2000/svg">
<path d="M164.731 38.5819C164.279 39.0374 163.747 39.4056 163.162 39.6678C162.61 39.921 162.012 40.0541 161.405 40.0581C160.993 40.0589 160.583 40.0076 160.184 39.9054C159.786 39.803 159.404 39.649 159.047 39.4472V44.3508H160.387C160.455 44.3508 160.489 44.3762 160.489 44.4271C160.489 44.478 160.455 44.5035 160.387 44.5035H160.226C160.141 44.5035 159.963 44.4978 159.692 44.4865C159.273 44.4865 158.979 44.4837 158.809 44.478C158.64 44.4724 158.527 44.4696 158.47 44.4696H158.309C158.235 44.4696 158.102 44.4752 157.91 44.4865C157.605 44.4978 157.379 44.5035 157.231 44.5035H156.858C156.79 44.5035 156.756 44.478 156.756 44.4271C156.756 44.3762 156.79 44.3508 156.858 44.3508C157.446 44.3508 157.803 44.249 157.927 44.0454C158.1 43.5033 158.163 42.9324 158.114 42.3656V33.1524C158.119 32.9366 158.104 32.7209 158.071 32.5076C158.056 32.3883 158.006 32.2762 157.927 32.1852C157.847 32.1247 157.748 32.0946 157.647 32.1004C157.42 32.1182 157.196 32.158 156.977 32.2192C156.909 32.2305 156.872 32.2107 156.867 32.1598C156.861 32.1089 156.892 32.0778 156.96 32.0665C157.239 32.0111 157.512 31.9287 157.774 31.8204C158.141 31.6548 158.493 31.459 158.826 31.2351C158.849 31.2125 158.891 31.2125 158.954 31.2351C159.016 31.2577 159.047 31.286 159.047 31.3199V33.0506C159.483 32.4952 160.029 32.036 160.65 31.7017C161.228 31.3948 161.871 31.2346 162.525 31.2351C163.01 31.2272 163.492 31.3248 163.935 31.521C164.379 31.7173 164.775 32.0076 165.096 32.3719C165.8 33.1511 166.174 34.1729 166.139 35.2224C166.14 35.8404 166.016 36.4522 165.774 37.0209C165.528 37.6024 165.174 38.1321 164.731 38.5819ZM165.223 35.7653C165.261 34.7307 164.941 33.7146 164.315 32.8894C164.037 32.5229 163.676 32.2278 163.262 32.0287C162.847 31.8295 162.391 31.7319 161.931 31.7441C161.387 31.7444 160.851 31.8784 160.37 32.1343C159.858 32.4068 159.407 32.7823 159.047 33.2372V38.4631C159.52 38.8405 160.042 39.1516 160.599 39.3879C161.054 39.5781 161.541 39.6789 162.033 39.6848C162.475 39.6972 162.914 39.6063 163.315 39.4193C163.715 39.2322 164.067 38.9542 164.341 38.6074C164.96 37.7934 165.273 36.787 165.223 35.7653ZM172.875 37.2754C172.502 37.9898 171.981 38.6172 171.348 39.1164C170.803 39.6654 170.082 40.0048 169.312 40.075C168.725 40.099 168.15 39.9023 167.7 39.5236C167.499 39.3544 167.339 39.1425 167.23 38.9032C167.121 38.664 167.068 38.4035 167.072 38.1408C167.087 37.7928 167.181 37.4527 167.345 37.1457C167.51 36.8387 167.741 36.5728 168.023 36.3677C168.932 35.6806 169.946 35.1449 171.026 34.7812L172.994 34.0347C173.026 33.3199 172.846 32.6116 172.477 31.9986C172.287 31.7823 172.05 31.6141 171.783 31.5079C171.516 31.4017 171.227 31.3605 170.941 31.3878C170.718 31.3859 170.495 31.4145 170.279 31.4726C170.062 31.5349 169.851 31.6202 169.652 31.7271C169.475 31.8464 169.312 31.9859 169.168 32.1428C168.928 32.4392 168.72 32.7606 168.549 33.1015C168.477 33.2386 168.372 33.3553 168.243 33.4408C168.111 33.5039 167.965 33.5331 167.819 33.5257C167.683 33.5341 167.547 33.5016 167.429 33.4323C167.387 33.4065 167.352 33.3703 167.329 33.3272C167.305 33.2841 167.293 33.2355 167.293 33.1863C167.302 33.0617 167.349 32.943 167.429 32.847C167.541 32.7004 167.672 32.5691 167.819 32.4567C168.301 32.0947 168.833 31.8033 169.397 31.5914C169.93 31.3699 170.5 31.2491 171.077 31.2351C171.463 31.2103 171.85 31.2645 172.215 31.3943C172.58 31.5241 172.914 31.7268 173.198 31.9901C173.46 32.2827 173.661 32.6248 173.789 32.9964C173.918 33.3679 173.97 33.7613 173.944 34.1534C173.944 34.4023 173.939 34.6907 173.927 35.0188C173.916 35.3468 173.899 35.8558 173.876 36.5458C173.842 37.1114 173.823 37.513 173.817 37.7505C173.811 37.9881 173.808 38.186 173.808 38.3444C173.792 38.6635 173.835 38.9829 173.936 39.2861C173.96 39.3695 174.01 39.4432 174.078 39.4965C174.147 39.5499 174.231 39.5801 174.318 39.583C174.542 39.5479 174.745 39.4298 174.886 39.2521C175.091 39.0546 175.251 38.8142 175.353 38.548C175.356 38.5312 175.364 38.5158 175.376 38.5031C175.387 38.4905 175.402 38.4811 175.418 38.476C175.435 38.4708 175.452 38.47 175.469 38.4737C175.486 38.4774 175.501 38.4855 175.514 38.4971C175.53 38.505 175.545 38.5166 175.556 38.531C175.568 38.5454 175.576 38.5622 175.58 38.5801C175.584 38.5981 175.584 38.6167 175.58 38.6347C175.576 38.6526 175.568 38.6694 175.556 38.6837C175.3 39.0315 174.997 39.3426 174.657 39.6084C174.402 39.8547 174.075 40.0124 173.724 40.0581C173.593 40.067 173.462 40.0438 173.342 39.9906C173.222 39.9374 173.117 39.8557 173.036 39.7527C172.866 39.485 172.786 39.1699 172.807 38.8534C172.807 38.6385 172.813 38.3726 172.824 38.0559C172.836 37.7392 172.853 37.479 172.875 37.2754ZM168.006 37.7335C168 37.9729 168.047 38.2105 168.142 38.4302C168.237 38.6498 168.379 38.8463 168.557 39.0061C168.934 39.3491 169.43 39.5317 169.94 39.5151C170.233 39.5062 170.518 39.4245 170.771 39.2776C171.104 39.0908 171.412 38.8628 171.688 38.5989C171.974 38.3231 172.235 38.0221 172.468 37.6996C172.649 37.4753 172.792 37.2232 172.892 36.9531C172.915 36.6703 172.938 36.2715 172.96 35.7569C172.983 35.2422 172.994 34.7869 172.994 34.391V34.1534L171.009 34.9509C170.144 35.2475 169.337 35.6924 168.625 36.2659C168.425 36.4539 168.267 36.6816 168.16 36.9343C168.054 37.1871 168.001 37.4593 168.006 37.7335ZM183.09 38.5819C182.638 39.0374 182.106 39.4056 181.52 39.6678C180.969 39.921 180.37 40.0541 179.764 40.0581C179.352 40.0589 178.942 40.0076 178.542 39.9054C178.145 39.803 177.763 39.649 177.406 39.4472V44.3508H178.746C178.814 44.3508 178.848 44.3762 178.848 44.4271C178.848 44.478 178.814 44.5035 178.746 44.5035H178.585C178.5 44.5035 178.322 44.4978 178.05 44.4865C177.632 44.4865 177.338 44.4837 177.168 44.478C176.998 44.4724 176.885 44.4696 176.829 44.4696H176.667C176.594 44.4696 176.461 44.4752 176.269 44.4865C175.963 44.4978 175.737 44.5035 175.59 44.5035H175.217C175.149 44.5035 175.115 44.478 175.115 44.4271C175.115 44.3762 175.149 44.3508 175.217 44.3508C175.805 44.3508 176.161 44.249 176.286 44.0454C176.458 43.5033 176.522 42.9324 176.472 42.3656V33.1524C176.477 32.9366 176.463 32.7209 176.43 32.5076C176.415 32.3883 176.364 32.2762 176.286 32.1852C176.205 32.1247 176.106 32.0946 176.006 32.1004C175.779 32.1182 175.555 32.158 175.336 32.2192C175.268 32.2305 175.231 32.2107 175.225 32.1598C175.22 32.1089 175.251 32.0778 175.319 32.0665C175.597 32.0111 175.87 31.9287 176.133 31.8204C176.499 31.6548 176.851 31.459 177.185 31.2351C177.208 31.2125 177.25 31.2125 177.312 31.2351C177.374 31.2577 177.406 31.286 177.406 31.3199V33.0506C177.841 32.4952 178.387 32.036 179.009 31.7017C179.586 31.3948 180.23 31.2346 180.884 31.2351C181.369 31.2272 181.85 31.3248 182.294 31.521C182.738 31.7173 183.134 32.0076 183.454 32.3719C184.158 33.1511 184.532 34.1729 184.498 35.2224C184.499 35.8404 184.375 36.4522 184.133 37.0209C183.887 37.6024 183.533 38.1321 183.09 38.5819ZM183.582 35.7653C183.62 34.7307 183.299 33.7146 182.674 32.8894C182.396 32.5229 182.035 32.2278 181.62 32.0287C181.206 31.8295 180.75 31.7319 180.29 31.7441C179.746 31.7444 179.21 31.8784 178.729 32.1343C178.217 32.4068 177.766 32.7823 177.406 33.2372V38.4631C177.879 38.8405 178.401 39.1516 178.958 39.3879C179.412 39.5781 179.899 39.6789 180.392 39.6848C180.834 39.6972 181.273 39.6063 181.673 39.4193C182.074 39.2322 182.425 38.9542 182.699 38.6074C183.319 37.7934 183.631 36.787 183.582 35.7653ZM193.1 39.2776C192.72 39.5302 192.306 39.7273 191.87 39.8629C191.444 39.9933 191.001 40.0591 190.555 40.0581C189.985 40.0852 189.415 39.9995 188.878 39.8059C188.34 39.6123 187.847 39.3145 187.425 38.9297C187.031 38.5467 186.723 38.0851 186.52 37.5749C186.317 37.0648 186.223 36.5176 186.246 35.9689C186.24 35.3486 186.362 34.7337 186.603 34.1619C186.843 33.5901 187.198 33.0734 187.645 32.6434C188.061 32.1985 188.565 31.8439 189.124 31.6016C189.683 31.3594 190.285 31.2346 190.895 31.2351C191.682 31.1888 192.462 31.4166 193.1 31.8798C193.343 32.0514 193.538 32.2812 193.669 32.548C193.799 32.8148 193.86 33.1102 193.847 33.4069C193.848 33.4996 193.828 33.5912 193.788 33.675C193.748 33.7588 193.69 33.8324 193.618 33.8905C193.429 34.0112 193.205 34.0677 192.982 34.0516H187.247C187.177 34.2844 187.129 34.5229 187.102 34.7643C187.074 35.0234 187.059 35.284 187.06 35.5448C187.048 36.0538 187.144 36.5595 187.342 37.0288C187.539 37.4981 187.833 37.9204 188.205 38.268C188.597 38.6345 189.057 38.92 189.559 39.1078C190.062 39.2956 190.596 39.3821 191.132 39.3624C192.082 39.3817 193.009 39.0697 193.754 38.4801C194.594 37.7518 195.239 36.8242 195.628 35.7823C195.674 35.6918 195.713 35.6551 195.747 35.672C195.781 35.689 195.781 35.7371 195.747 35.8162C195.461 36.5401 195.079 37.222 194.61 37.8438C194.193 38.4047 193.682 38.8896 193.1 39.2776ZM192.727 33.1524C192.721 32.9295 192.663 32.711 192.557 32.5149C192.451 32.3188 192.3 32.1506 192.116 32.0241C191.656 31.6847 191.093 31.514 190.521 31.5405C189.793 31.5208 189.079 31.7381 188.485 32.1598C187.902 32.5975 187.479 33.2144 187.281 33.9159C188.14 33.9159 189.121 33.9046 190.224 33.882L191.913 33.848C192.053 33.8358 192.192 33.8103 192.328 33.7717C192.423 33.7533 192.512 33.7158 192.591 33.6614C192.64 33.5985 192.674 33.5263 192.693 33.4493C192.717 33.3522 192.729 33.2524 192.727 33.1524ZM195.968 39.8714C195.73 39.8827 195.549 39.8884 195.425 39.8884H195.085C195.018 39.8884 194.984 39.8629 194.984 39.812C194.984 39.7611 195.018 39.7357 195.085 39.7357C195.425 39.7357 195.637 39.6452 195.722 39.4642C195.842 38.9417 195.885 38.4043 195.849 37.8693V28.147C195.886 27.7903 195.827 27.4303 195.679 27.1035C195.566 26.9508 195.261 26.9197 194.763 27.0102C194.695 27.0215 194.661 27.0017 194.661 26.9508C194.661 26.8999 194.695 26.8688 194.763 26.8575C195.12 26.7958 195.469 26.6992 195.807 26.5691C196.067 26.4656 196.311 26.3226 196.528 26.1449C196.55 26.111 196.598 26.1025 196.672 26.1194C196.745 26.1364 196.782 26.1675 196.782 26.2128V37.8693C196.735 38.417 196.787 38.9688 196.935 39.4981C197.037 39.6565 197.297 39.7357 197.715 39.7357C197.783 39.7357 197.817 39.7611 197.817 39.812C197.817 39.8629 197.783 39.8884 197.715 39.8884H197.385C197.266 39.8884 197.093 39.8827 196.867 39.8714C196.731 39.8601 196.632 39.8545 196.57 39.8545H196.282C196.219 39.8545 196.115 39.8601 195.968 39.8714ZM215.073 36.7155C215.021 37.5224 214.667 38.2799 214.08 38.8364C213.85 39.1429 213.558 39.3979 213.224 39.5849C212.889 39.7719 212.519 39.8868 212.138 39.9223C211.669 39.8501 211.232 39.6405 210.882 39.32C210.175 38.7573 209.511 38.1419 208.897 37.479C208.495 38.1459 207.965 38.7257 207.336 39.1842C206.805 39.6471 206.138 39.9241 205.435 39.9732C205.114 39.9587 204.798 39.8764 204.51 39.7316C204.222 39.5869 203.968 39.383 203.764 39.1333C203.279 38.6683 202.996 38.0317 202.975 37.3603C202.994 36.989 203.088 36.6255 203.251 36.2916C203.415 35.9577 203.644 35.6604 203.925 35.4175C204.494 34.8224 205.248 34.4368 206.063 34.3231C205.571 33.7468 205.131 33.1279 204.748 32.4737C204.504 32.0905 204.355 31.654 204.316 31.2011C204.298 30.7938 204.363 30.3872 204.505 30.0053C204.648 29.6235 204.866 29.2742 205.147 28.9784C205.435 28.6929 205.776 28.4677 206.152 28.3162C206.528 28.1647 206.931 28.0899 207.336 28.0961C207.889 28.1032 208.438 28.1773 208.973 28.3167C209.42 28.3906 209.852 28.5338 210.254 28.7409C210.198 29.2499 210.155 29.7476 210.127 30.234C210.099 30.7204 210.085 31.1955 210.085 31.6593C210.085 31.795 210.053 31.8629 209.991 31.8629C209.929 31.8629 209.898 31.795 209.898 31.6593C209.884 31.1768 209.825 30.6966 209.72 30.2255C209.644 29.869 209.496 29.5314 209.287 29.2329C209.081 28.9122 208.795 28.6517 208.456 28.4779C208.101 28.308 207.712 28.2237 207.319 28.2319C207.014 28.2183 206.709 28.2653 206.422 28.3701C206.135 28.4749 205.872 28.6356 205.648 28.8427C205.437 29.0464 205.271 29.2922 205.162 29.564C205.052 29.8359 205.001 30.1277 205.011 30.4206C205.064 31.0376 205.281 31.6293 205.639 32.1343C206.418 33.271 207.28 34.3486 208.218 35.3581C209.14 36.427 210.135 37.4305 211.196 38.3613C211.683 38.8735 212.312 39.228 213.003 39.3794C213.342 39.3794 213.622 39.1051 213.843 38.5565C214.075 37.9416 214.187 37.2878 214.174 36.6307C214.179 36.1064 214.128 35.583 214.021 35.0697C213.955 34.693 213.811 34.3345 213.597 34.0177L211.764 34.0007C211.278 34.0007 210.89 34.0036 210.602 34.0092C210.412 34.0064 210.221 34.0206 210.034 34.0516C209.988 34.063 209.957 34.0601 209.94 34.0432C209.923 34.0262 209.932 34.0007 209.966 33.9668C210.011 33.9103 210.11 33.7773 210.263 33.5681C210.415 33.3588 210.526 33.2542 210.594 33.2542H211.476C211.894 33.2655 212.194 33.2712 212.375 33.2712H212.782C213.054 33.2712 213.337 33.2655 213.631 33.2542C213.83 33.2519 214.028 33.2349 214.225 33.2033C214.272 33.1907 214.322 33.1907 214.369 33.2033C214.386 33.2146 214.372 33.2429 214.326 33.2881C214.27 33.3332 214.219 33.3844 214.174 33.4408C214.128 33.4974 214.066 33.5822 213.987 33.6953C213.919 33.7858 213.868 33.8509 213.834 33.8905C213.8 33.93 213.766 33.9668 213.732 34.0007C214.151 34.3342 214.492 34.7538 214.734 35.2309C214.961 35.6926 215.077 36.201 215.073 36.7155ZM206.148 34.4419C205.513 34.5252 204.917 34.7937 204.434 35.2139C204.021 35.5942 203.771 36.1205 203.739 36.6816C203.79 37.3542 204.086 37.9848 204.57 38.4547C204.753 38.6873 204.981 38.8803 205.24 39.0218C205.5 39.1633 205.786 39.2503 206.08 39.2776C206.614 39.261 207.128 39.0736 207.548 38.7431C208.049 38.3767 208.463 37.9046 208.761 37.3603C208.399 36.9757 208.105 36.659 207.879 36.4101C207.653 36.1612 207.494 35.9859 207.404 35.8841C207.2 35.6692 206.994 35.4401 206.784 35.1969C206.575 34.9537 206.363 34.7021 206.148 34.4419Z" fill="#5B5B5B"/>
<path d="M176.007 52.7487C175.555 53.6352 174.897 54.4008 174.089 54.9816C173.381 55.5096 172.523 55.8 171.639 55.8113C171.124 55.8307 170.61 55.745 170.128 55.5593C169.647 55.3737 169.209 55.0919 168.84 54.7314C168.478 54.3656 168.194 53.9294 168.008 53.4497C167.821 52.97 167.735 52.4571 167.755 51.9428C167.755 51.3474 167.879 50.7587 168.121 50.2145C168.362 49.6703 168.715 49.1828 169.157 48.7835C169.574 48.355 170.073 48.0142 170.624 47.7811C171.175 47.548 171.767 47.4273 172.365 47.4261C173.002 47.4151 173.633 47.55 174.21 47.8206C174.752 48.0836 175.024 48.3497 175.024 48.6189C175.021 48.6836 175.003 48.7468 174.973 48.8038C174.942 48.8609 174.899 48.9104 174.847 48.9489C174.736 49.0483 174.593 49.103 174.444 49.1025C174.353 49.0988 174.265 49.0693 174.189 49.0176C174.044 48.9127 173.909 48.7939 173.786 48.663C173.509 48.3593 173.178 48.1106 172.808 47.93C172.495 47.7974 172.157 47.7316 171.817 47.7366C171.374 47.7232 170.935 47.8079 170.529 47.9847C170.123 48.1614 169.762 48.4258 169.471 48.7589C168.839 49.5125 168.514 50.4767 168.561 51.4592C168.544 51.9488 168.627 52.4366 168.806 52.8927C168.985 53.3487 169.255 53.7634 169.6 54.1112C169.95 54.4567 170.367 54.7272 170.825 54.9059C171.283 55.0846 171.773 55.1678 172.265 55.1504C172.988 55.1651 173.698 54.9578 174.301 54.5566C174.965 54.0706 175.506 53.4347 175.879 52.7004C175.882 52.6869 175.888 52.6743 175.896 52.6632C175.904 52.6522 175.915 52.6429 175.927 52.6359C175.937 52.6306 175.948 52.6279 175.959 52.6279C175.97 52.6279 175.981 52.6306 175.991 52.6359C176.001 52.6398 176.009 52.6465 176.015 52.6551C176.021 52.6637 176.024 52.6739 176.024 52.6843C176.023 52.7067 176.018 52.7288 176.007 52.7487ZM183.6 51.5076C183.604 52.0666 183.497 52.6209 183.285 53.1383C183.074 53.6557 182.762 54.126 182.367 54.5218C181.987 54.9351 181.525 55.2636 181.009 55.4858C180.494 55.708 179.937 55.8189 179.376 55.8113C178.846 55.8306 178.317 55.7411 177.822 55.5484C177.327 55.3556 176.877 55.0638 176.499 54.6906C176.124 54.3075 175.831 53.8519 175.639 53.3517C175.446 52.8515 175.358 52.3172 175.379 51.7816C175.368 51.2128 175.471 50.6475 175.681 50.1189C175.892 49.5902 176.205 49.1088 176.604 48.7029C176.991 48.2901 177.462 47.9635 177.984 47.7442C178.506 47.525 179.068 47.418 179.634 47.4303C180.163 47.4101 180.691 47.4999 181.183 47.694C181.676 47.888 182.123 48.1822 182.496 48.5578C182.868 48.9505 183.158 49.4139 183.347 49.9206C183.537 50.4274 183.623 50.967 183.6 51.5076ZM176.346 51.5076C176.319 52.5548 176.648 53.5802 177.279 54.4166C177.544 54.7949 177.897 55.1032 178.307 55.3153C178.717 55.5273 179.173 55.6367 179.634 55.634C180.058 55.6443 180.478 55.5531 180.859 55.368C181.241 55.1829 181.572 54.9094 181.826 54.5702C182.418 53.7583 182.713 52.7686 182.665 51.7655C182.7 50.7021 182.379 49.6573 181.754 48.7962C181.497 48.4215 181.151 48.1157 180.748 47.9055C180.344 47.6954 179.896 47.5873 179.441 47.5907C179.008 47.5776 178.578 47.668 178.187 47.8546C177.796 48.0411 177.455 48.3182 177.193 48.663C176.594 49.4868 176.295 50.4905 176.346 51.5076ZM185.566 55.634C185.352 55.6448 185.188 55.6501 185.075 55.6501H184.76C184.696 55.6501 184.663 55.6261 184.663 55.578C184.663 55.5299 184.696 55.5059 184.76 55.5059C185.082 55.5059 185.284 55.4211 185.364 55.2514C185.478 54.755 185.519 54.2445 185.485 53.7362V49.8813C185.481 49.586 185.415 49.2949 185.291 49.027C185.179 48.7608 185.014 48.5197 184.808 48.3177C184.79 48.304 184.778 48.2839 184.775 48.2617C184.775 48.2453 184.786 48.232 184.808 48.2219C184.99 48.1374 185.167 48.0431 185.339 47.9394C185.45 47.8732 185.553 47.7949 185.646 47.7061C185.667 47.6846 185.683 47.6764 185.694 47.6815C185.712 47.6925 185.728 47.7059 185.742 47.7213C185.946 47.9382 186.1 48.1967 186.194 48.4789C186.31 48.7883 186.37 49.1157 186.371 49.446C186.786 48.844 187.311 48.3259 187.919 47.919C188.424 47.5974 189.012 47.427 189.611 47.4278C189.988 47.4007 190.365 47.4625 190.714 47.608C191.062 47.7536 191.372 47.979 191.617 48.266C192.116 49.006 192.351 49.8922 192.286 50.7822V54.0705C192.286 54.3069 192.291 54.5029 192.302 54.6584C192.31 54.7911 192.326 54.9231 192.35 55.0537C192.373 55.1886 192.438 55.3127 192.535 55.4083C192.697 55.4909 192.879 55.5245 193.06 55.5051C193.124 55.5051 193.156 55.5291 193.156 55.5772C193.156 55.6252 193.125 55.6496 193.061 55.6501H192.948C192.892 55.6501 192.779 55.6448 192.609 55.634C192.34 55.634 192.15 55.6315 192.037 55.6264C191.925 55.6213 191.841 55.6185 191.787 55.6179H191.658C191.602 55.6179 191.505 55.6233 191.368 55.634C191.164 55.6448 191.006 55.6501 190.893 55.6501H190.579C190.515 55.6501 190.482 55.6261 190.482 55.578C190.482 55.5299 190.515 55.5059 190.579 55.5059C190.944 55.5059 191.173 55.4092 191.264 55.2158C191.383 54.8135 191.429 54.3932 191.4 53.9746V50.7296C191.454 49.9695 191.262 49.2123 190.852 48.5697C190.66 48.326 190.412 48.1326 190.128 48.0064C189.845 47.8802 189.535 47.8249 189.225 47.8452C188.699 47.8419 188.183 47.9933 187.742 48.2804C187.208 48.6522 186.744 49.1161 186.372 49.6505V55.5042H187.21C187.275 55.5042 187.307 55.5283 187.307 55.5763C187.307 55.6244 187.275 55.649 187.21 55.6501H187.097C187.041 55.6501 186.933 55.6448 186.775 55.634C186.517 55.634 186.334 55.6315 186.227 55.6264C186.119 55.6213 186.039 55.6185 185.985 55.6179H185.849C185.789 55.6179 185.695 55.6233 185.566 55.634ZM196.994 55.7189H196.817C196.795 55.7202 196.773 55.7173 196.753 55.7104C196.738 55.7007 196.727 55.6868 196.72 55.6705L193.996 49.4282C193.808 48.9328 193.551 48.4661 193.233 48.042C193.118 47.9296 192.98 47.8439 192.828 47.791C192.676 47.738 192.514 47.7192 192.355 47.7357C192.298 47.7357 192.271 47.7114 192.274 47.6628C192.277 47.6141 192.304 47.5901 192.355 47.5907H192.491C192.561 47.5907 192.709 47.5961 192.935 47.6068C193.29 47.6068 193.539 47.6096 193.684 47.6153C193.829 47.6209 193.923 47.6235 193.967 47.6229H194.45C194.697 47.6122 194.88 47.6068 194.998 47.6068H195.288C195.353 47.6068 195.385 47.6283 195.385 47.6713C195.385 47.7143 195.353 47.7357 195.288 47.7357C194.794 47.7357 194.52 47.8189 194.466 47.9852C194.46 48.3625 194.561 48.734 194.756 49.0567L197.301 54.7789L199.477 49.6531C199.736 49.2048 199.822 48.6774 199.719 48.1701C199.59 47.88 199.236 47.7349 198.655 47.7349C198.591 47.7349 198.559 47.7106 198.559 47.6619C198.559 47.6133 198.591 47.5893 198.655 47.5898H198.978C199.107 47.5898 199.305 47.5952 199.572 47.6059C199.765 47.6167 199.899 47.6221 199.975 47.6221H200.353C200.455 47.6221 200.635 47.6167 200.893 47.6059C201.076 47.5952 201.197 47.5898 201.256 47.5898H201.377C201.431 47.5898 201.458 47.6139 201.458 47.6619C201.458 47.71 201.431 47.7343 201.377 47.7349C201.213 47.7339 201.052 47.7696 200.904 47.8393C200.756 47.909 200.626 48.0111 200.523 48.1379C200.149 48.6166 199.85 49.1492 199.636 49.7175L197.091 55.6654C197.079 55.6775 197.065 55.6883 197.05 55.6976C197.034 55.7088 197.014 55.7147 196.994 55.7146V55.7189ZM204.036 45.0295C204.037 45.1171 204.02 45.2041 203.985 45.2846C203.95 45.3651 203.899 45.4375 203.835 45.4969C203.772 45.5591 203.698 45.6083 203.616 45.6415C203.534 45.6747 203.447 45.6913 203.359 45.6903C203.272 45.6917 203.185 45.6753 203.105 45.642C203.025 45.6087 202.952 45.5594 202.891 45.4969C202.829 45.4363 202.779 45.3636 202.746 45.2832C202.713 45.2028 202.696 45.1165 202.698 45.0295C202.697 44.9413 202.713 44.8538 202.747 44.772C202.78 44.6903 202.829 44.6161 202.891 44.5535C202.951 44.4891 203.023 44.4379 203.104 44.4032C203.184 44.3686 203.271 44.3513 203.359 44.3525C203.448 44.3517 203.536 44.3692 203.618 44.4037C203.699 44.4383 203.773 44.4893 203.835 44.5535C203.899 44.6145 203.95 44.688 203.986 44.7696C204.021 44.8512 204.038 44.939 204.038 45.0278L204.036 45.0295ZM202.942 55.634C202.674 55.6448 202.472 55.6501 202.337 55.6501H201.991C201.927 55.6501 201.894 55.6261 201.894 55.578C201.894 55.5299 201.927 55.5059 201.991 55.5059C202.421 55.5059 202.692 55.4386 202.805 55.304C202.959 54.9581 203.017 54.5773 202.974 54.2011V49.2806C203.015 48.973 202.956 48.6606 202.806 48.389C202.692 48.2759 202.405 48.2784 201.944 48.3966C201.879 48.4181 201.842 48.4074 201.831 48.3644C201.82 48.3214 201.848 48.2892 201.916 48.2677C202.22 48.1985 202.516 48.1014 202.802 47.9775C203.11 47.8366 203.401 47.6637 203.673 47.4617C203.694 47.4402 203.734 47.4402 203.793 47.4617C203.852 47.4832 203.88 47.5115 203.878 47.5466V54.1994C203.835 54.5756 203.894 54.9564 204.048 55.3023C204.161 55.4369 204.427 55.5042 204.846 55.5042C204.91 55.5042 204.943 55.5283 204.943 55.5763C204.943 55.6244 204.909 55.649 204.842 55.6501H204.511C204.388 55.6501 204.197 55.6448 203.939 55.634C203.778 55.6233 203.665 55.6179 203.6 55.6179H203.301C203.234 55.6179 203.114 55.6233 202.942 55.634ZM210.228 53.7837C209.952 54.3397 209.572 54.8376 209.108 55.2506C208.758 55.5892 208.297 55.7886 207.811 55.8113C207.586 55.8297 207.361 55.793 207.154 55.7043C206.947 55.6156 206.765 55.4776 206.623 55.3023C206.335 54.831 206.202 54.2811 206.244 53.7303V48.2032H205.36C205.349 48.2032 205.344 48.1925 205.344 48.171C205.343 48.1622 205.344 48.1535 205.347 48.1451C205.35 48.1368 205.354 48.1292 205.36 48.1226L207.101 46.3334C207.122 46.3119 207.138 46.304 207.149 46.3096C207.16 46.3153 207.165 46.3286 207.165 46.3495V47.6068H208.15C208.591 47.5961 208.913 47.5907 209.117 47.5907H209.633C209.727 47.5807 209.821 47.5778 209.916 47.5822C209.964 47.5879 209.988 47.6068 209.988 47.639C209.988 47.682 209.939 47.7572 209.843 47.8647C209.72 47.9954 209.585 48.1141 209.44 48.2193H208.714C208.22 48.2086 207.863 48.2032 207.642 48.2032H207.133V53.6514C207.102 54.122 207.202 54.5921 207.423 55.0088C207.515 55.1548 207.644 55.2737 207.797 55.353C207.95 55.4324 208.122 55.4694 208.294 55.4601C208.474 55.4475 208.651 55.399 208.813 55.3174C208.975 55.2358 209.119 55.1228 209.236 54.985C209.584 54.6164 209.85 54.178 210.017 53.6989C210.022 53.6848 210.029 53.6719 210.039 53.6609C210.049 53.65 210.062 53.6412 210.075 53.6351C210.089 53.6291 210.104 53.6259 210.118 53.6258C210.133 53.6257 210.148 53.6286 210.162 53.6344C210.227 53.6565 210.249 53.7062 210.228 53.7837ZM216.421 55.0732C216.06 55.3131 215.667 55.5002 215.253 55.6289C214.847 55.7521 214.424 55.8136 214 55.8113C213.458 55.8371 212.916 55.7557 212.406 55.5717C211.895 55.3876 211.426 55.1047 211.025 54.739C210.652 54.3751 210.359 53.9366 210.166 53.4521C209.973 52.9675 209.884 52.4478 209.906 51.9267C209.901 51.3373 210.016 50.7531 210.245 50.2099C210.474 49.6667 210.811 49.1758 211.236 48.7674C211.631 48.3448 212.109 48.008 212.64 47.7779C213.171 47.5477 213.743 47.4291 214.322 47.4295C215.07 47.3855 215.811 47.6019 216.418 48.042C216.648 48.205 216.834 48.4233 216.957 48.6768C217.081 48.9303 217.14 49.2108 217.127 49.4927C217.128 49.5807 217.108 49.6677 217.071 49.7472C217.033 49.8267 216.977 49.8966 216.909 49.9517C216.729 50.0666 216.517 50.1205 216.304 50.1052H210.857C210.791 50.3269 210.745 50.5541 210.72 50.7839C210.692 51.0301 210.679 51.2777 210.679 51.5254C210.668 52.009 210.759 52.4896 210.947 52.9355C211.134 53.3814 211.414 53.7827 211.768 54.1129C212.14 54.4606 212.577 54.7314 213.054 54.9094C213.531 55.0875 214.039 55.1694 214.548 55.1504C215.45 55.1688 216.331 54.8725 217.039 54.3123C217.837 53.6204 218.45 52.7392 218.82 51.7494C218.863 51.6634 218.901 51.6286 218.933 51.645C218.965 51.6614 218.965 51.7069 218.933 51.7816C218.661 52.4691 218.298 53.1168 217.853 53.7074C217.456 54.2404 216.971 54.7013 216.418 55.0699L216.421 55.0732ZM216.066 49.2543C216.061 49.0426 216.006 48.8352 215.905 48.649C215.804 48.4628 215.66 48.303 215.486 48.1828C215.049 47.8603 214.514 47.6979 213.971 47.723C213.279 47.7044 212.601 47.911 212.037 48.3118C211.483 48.7277 211.081 49.314 210.892 49.9805C211.709 49.9805 212.642 49.9698 213.692 49.9483L215.295 49.916C215.429 49.9043 215.561 49.8798 215.69 49.8431C215.779 49.8257 215.864 49.7902 215.939 49.7387C215.985 49.6789 216.018 49.6101 216.036 49.5368C216.057 49.4431 216.066 49.347 216.063 49.2509L216.066 49.2543ZM224.961 53.3935C224.967 53.7239 224.899 54.0515 224.761 54.3517C224.623 54.6519 224.418 54.9169 224.163 55.1267C223.591 55.5968 222.867 55.8404 222.127 55.8113C221.866 55.8118 221.605 55.7985 221.346 55.7714C221.093 55.7447 220.841 55.7042 220.592 55.6501C220.304 55.5847 220.018 55.504 219.738 55.4083C219.416 55.3009 219.218 55.2364 219.144 55.2149C219.11 55.2077 219.079 55.1873 219.059 55.1581C219.04 55.1152 219.032 55.0683 219.036 55.0215V54.767C219.046 54.4124 219.054 54.0388 219.059 53.6463C219.064 53.2538 219.067 52.805 219.067 52.2999C219.067 52.2462 219.089 52.2194 219.132 52.2194C219.175 52.2194 219.196 52.2462 219.196 52.2999C219.189 52.7965 219.243 53.292 219.357 53.7752C219.44 54.1484 219.605 54.4983 219.841 54.7992C220.074 55.0996 220.391 55.324 220.752 55.444C221.198 55.6 221.668 55.6752 222.14 55.6663C222.721 55.7041 223.298 55.5422 223.775 55.2073C223.965 55.0536 224.115 54.8575 224.215 54.6347C224.314 54.412 224.359 54.169 224.347 53.9254C224.354 53.6491 224.278 53.377 224.129 53.1441C223.952 52.8953 223.717 52.6933 223.445 52.5553C223.264 52.4609 223.078 52.3776 222.888 52.3059C222.678 52.225 222.315 52.104 221.8 51.9428C221.001 51.7552 220.246 51.4159 219.575 50.9434C219.402 50.7877 219.264 50.596 219.172 50.3816C219.08 50.1672 219.036 49.9354 219.043 49.7023C219.035 49.3789 219.107 49.0586 219.254 48.7701C219.4 48.4816 219.616 48.2341 219.881 48.0496C220.494 47.6193 221.231 47.4015 221.979 47.4295C222.344 47.4295 222.683 47.4428 222.997 47.4694C223.31 47.4959 223.842 47.5847 224.592 47.7357C224.624 47.7419 224.653 47.7556 224.677 47.7756C224.695 47.8001 224.704 47.8302 224.701 47.8605C224.701 47.9464 224.698 48.0754 224.693 48.2473C224.688 48.4192 224.68 48.7148 224.67 49.1339C224.659 49.5744 224.651 49.8889 224.645 50.0772C224.639 50.2656 224.637 50.407 224.637 50.5014C224.637 50.5659 224.616 50.5981 224.573 50.5981C224.53 50.5981 224.508 50.5659 224.508 50.5014C224.514 50.0828 224.479 49.6645 224.404 49.2526C224.353 48.9501 224.241 48.6613 224.073 48.4043C223.873 48.1111 223.585 47.8885 223.251 47.768C222.834 47.614 222.391 47.5403 221.946 47.5508C221.357 47.5236 220.774 47.6712 220.269 47.975C220.071 48.091 219.908 48.2571 219.795 48.4565C219.681 48.656 219.623 48.8817 219.624 49.1109C219.622 49.3082 219.665 49.5033 219.749 49.6819C219.832 49.8605 219.955 50.018 220.108 50.1426C220.742 50.5702 221.446 50.8838 222.188 51.069C222.758 51.2517 223.164 51.3913 223.406 51.4881C223.614 51.5688 223.817 51.6658 224.01 51.7782C224.306 51.9457 224.555 52.1839 224.736 52.4713C224.892 52.7529 224.97 53.0715 224.961 53.3935Z" fill="#5B5B5B"/>
<path d="M60.0396 42.6277C60.0525 44.3637 59.7207 46.085 59.0634 47.6917C58.406 49.2985 57.4361 50.7587 56.21 51.9877C55.0318 53.2714 53.5956 54.2917 51.9956 54.9817C50.3956 55.6718 48.6678 56.0161 46.9255 55.992C45.2778 56.0519 43.6352 55.7742 42.0987 55.176C40.5622 54.5779 39.1642 53.6719 37.9906 52.5137C36.8261 51.3241 35.917 49.9091 35.3189 48.3556C34.7208 46.8021 34.4463 45.1428 34.5123 43.4795C34.4789 41.7129 34.7981 39.9575 35.4513 38.3158C36.1044 36.6741 37.0785 35.1791 38.3164 33.9184C39.5198 32.6361 40.9795 31.6214 42.6007 30.9402C44.2219 30.2589 45.9683 29.9264 47.7264 29.9642C49.369 29.9019 51.0067 30.1812 52.5359 30.7842C54.0651 31.3873 55.4525 32.3012 56.6105 33.4679C57.7667 34.6871 58.666 36.1261 59.2551 37.6997C59.8442 39.2732 60.1109 40.9491 60.0396 42.6277ZM37.5155 42.6277C37.434 45.881 38.4574 49.0659 40.4186 51.6628C41.2406 52.8363 42.3349 53.7931 43.6076 54.4512C44.8803 55.1093 46.2936 55.4491 47.7264 55.4414C49.0422 55.4732 50.3466 55.19 51.5308 54.6154C52.7149 54.0407 53.7445 53.1913 54.5337 52.1379C56.2689 49.9355 57.1365 47.0324 57.1365 43.4286C57.2423 40.1299 56.2476 36.8897 54.3089 34.2187C53.5097 33.0534 52.437 32.1019 51.1847 31.4474C49.9324 30.7929 48.5387 30.4555 47.1258 30.4647C45.781 30.4238 44.4459 30.7045 43.2315 31.2835C42.0171 31.8625 40.9585 32.7231 40.1437 33.7937C38.3916 36.0125 37.5155 38.9571 37.5155 42.6277ZM65.145 55.4414C64.3442 55.4748 63.7435 55.4915 63.3431 55.4915H62.292C62.0917 55.4915 61.9916 55.4165 61.9916 55.2666C61.9916 55.1168 62.0917 55.0418 62.292 55.0418C63.5266 55.0418 64.3108 54.875 64.6445 54.5413C64.9782 54.2076 65.145 53.1064 65.145 51.2378V32.3668H62.7424C62.5722 32.3776 62.4016 32.3522 62.2419 32.2921C62.1972 32.274 62.159 32.2429 62.1322 32.2028C62.1054 32.1627 62.0913 32.1155 62.0917 32.0673L63.243 30.5156H65.2451C65.4959 26.7669 66.9734 23.205 69.4496 20.3794C70.4691 19.1475 71.7454 18.1531 73.1892 17.4657C74.633 16.7783 76.2095 16.4145 77.8085 16.3997C78.793 16.3799 79.7763 16.4808 80.7362 16.7C81.5224 16.9002 81.9155 17.1505 81.9155 17.4508C81.8738 17.9725 81.6303 18.4573 81.2368 18.8023C81.0528 19.0153 80.8264 19.1877 80.5721 19.3083C80.3178 19.429 80.0411 19.4953 79.7598 19.503C79.4912 19.4997 79.2234 19.4745 78.9589 19.4275C78.6586 19.3772 78.1914 19.2686 77.5574 19.1017C76.5897 18.9015 75.8389 18.7601 75.305 18.6776C74.7918 18.5957 74.273 18.5537 73.7534 18.552C71.8513 18.552 70.3998 19.57 69.3987 21.6061C68.3976 23.6422 67.8971 26.6115 67.8971 30.5139H79.0107V32.3659H67.8971V51.2369C67.9305 53.0055 68.1058 54.0815 68.4231 54.4649C68.7404 54.8484 69.733 55.0404 71.4008 55.041C71.6011 55.041 71.7012 55.1159 71.7012 55.2658C71.7012 55.4157 71.6013 55.4909 71.4017 55.4915H70.2988C69.865 55.4915 69.1976 55.4748 68.2967 55.4414C67.7311 55.408 67.3392 55.3914 67.1208 55.3914H66.1961C65.9959 55.3914 65.6455 55.408 65.145 55.4414ZM78.3591 55.4414C77.5583 55.4748 76.9576 55.4915 76.5572 55.4915H75.5061C75.3059 55.4915 75.2058 55.4165 75.2058 55.2666C75.2058 55.1168 75.3059 55.0418 75.5061 55.0418C76.7407 55.0418 77.5249 54.875 77.8586 54.5413C78.1923 54.2076 78.3591 53.1064 78.3591 51.2378V32.3668H75.9566C75.7863 32.3776 75.6157 32.3522 75.456 32.2921C75.4113 32.274 75.3731 32.2429 75.3463 32.2028C75.3195 32.1627 75.3054 32.1155 75.3059 32.0673L76.4571 30.5156H78.5093C78.8832 27.0089 80.4256 23.7298 82.8885 21.2057C83.9508 20.0345 85.2442 19.0961 86.6873 18.4498C88.1304 17.8036 89.6918 17.4634 91.2729 17.4508C92.249 17.4374 93.2233 17.5382 94.176 17.7512C95.0102 17.9514 95.4274 18.2016 95.4274 18.502C95.3898 19.0187 95.1572 19.5018 94.7767 19.8534C94.5912 20.071 94.3611 20.2461 94.102 20.367C93.843 20.4879 93.5609 20.5517 93.2751 20.5541C93.0146 20.5515 92.7549 20.5262 92.4988 20.4786C92.216 20.4289 91.7573 20.3206 91.1228 20.1537C90.417 19.9337 89.6982 19.7583 88.9705 19.6286C88.4572 19.547 87.9385 19.5053 87.4188 19.5039C86.4504 19.4954 85.4994 19.7612 84.6757 20.2704C83.852 20.7796 83.1892 21.5115 82.7638 22.3815C81.6627 24.3005 81.1121 27.0116 81.1121 30.5148C81.4353 30.4803 81.7601 30.4636 82.0851 30.4647H86.3151C86.5981 30.4577 86.8813 30.4659 87.1634 30.4893C87.2635 30.5063 87.3136 30.5315 87.3136 30.5648C87.2621 30.7635 87.1584 30.9448 87.0133 31.09C86.8131 31.3405 86.396 31.7828 85.7619 32.4168C85.2948 32.3834 84.7691 32.3668 84.1848 32.3668H81.1121V51.2369C81.1454 53.0055 81.3205 54.0815 81.6372 54.4649C81.9539 54.8484 82.9465 55.0404 84.615 55.041C84.8152 55.041 84.9153 55.1159 84.9153 55.2658C84.9153 55.4157 84.8155 55.4909 84.6158 55.4915H83.5129C83.0791 55.4915 82.4118 55.4748 81.5108 55.4414C80.9452 55.408 80.553 55.3914 80.3341 55.3914H79.4102C79.21 55.3914 78.8597 55.408 78.3591 55.4414ZM91.7735 55.4414C90.9392 55.4748 90.3219 55.4915 89.9215 55.4915H88.872C88.6718 55.4915 88.5717 55.4165 88.5717 55.2666C88.5717 55.1168 88.6718 55.0415 88.872 55.041C90.2068 55.041 91.0492 54.8323 91.3993 54.4149C91.7494 53.9975 91.925 52.8547 91.9262 50.9867V35.9206C91.9262 34.5191 91.7344 33.6348 91.351 33.2677C90.9675 32.9007 90.0909 32.884 88.721 33.2177C88.5208 33.251 88.3958 33.201 88.3461 33.0675C88.2963 32.934 88.3712 32.8492 88.5709 32.813C89.662 32.5858 90.7209 32.2245 91.7234 31.7373C92.5556 31.2971 93.3152 30.7317 93.9758 30.0609C94.0425 29.9942 94.176 29.986 94.3762 30.0363C94.5764 30.0866 94.6765 30.1783 94.6765 30.3112V50.9867C94.6765 52.8219 94.8516 53.9565 95.2017 54.3903C95.5518 54.8241 96.3942 55.041 97.729 55.041C97.9292 55.041 98.0293 55.1159 98.0293 55.2658C98.0293 55.4157 97.9295 55.4909 97.7298 55.4915H96.677C96.2766 55.4915 95.6759 55.4748 94.8751 55.4414C94.3745 55.408 94.0242 55.3914 93.8239 55.3914H92.9001C92.6829 55.3914 92.3074 55.408 91.7735 55.4414ZM125.66 46.4818C124.255 49.2343 122.213 51.6113 119.703 53.4147C117.502 55.0544 114.839 55.9565 112.095 55.992C110.496 56.0509 108.901 55.784 107.409 55.2074C105.916 54.6309 104.556 53.7569 103.411 52.6384C102.285 51.5035 101.404 50.1492 100.823 48.6597C100.241 47.1701 99.9723 45.577 100.032 43.9792C100.032 42.1304 100.42 40.3021 101.17 38.6123C101.92 36.9225 103.016 35.4088 104.387 34.1687C105.684 32.84 107.233 31.7837 108.943 31.0617C110.654 30.3398 112.491 29.9666 114.348 29.9642C116.327 29.9299 118.287 30.3493 120.079 31.1901C121.765 32.0079 122.607 32.8339 122.606 33.6682C122.596 33.8692 122.542 34.0656 122.447 34.243C122.351 34.4204 122.218 34.5744 122.056 34.6938C121.712 35.0021 121.266 35.1717 120.804 35.1698C120.519 35.1629 120.241 35.0746 120.004 34.9152C119.552 34.5888 119.133 34.2195 118.752 33.8124C117.897 32.8608 116.869 32.0795 115.724 31.5099C114.75 31.0983 113.702 30.8938 112.645 30.9093C111.272 30.8685 109.906 31.1325 108.647 31.6821C107.388 32.2317 106.266 33.0534 105.363 34.0881C103.477 36.2073 102.534 39.0021 102.534 42.4725C102.482 43.9925 102.742 45.507 103.297 46.9229C103.853 48.3388 104.692 49.6262 105.763 50.7058C106.851 51.7803 108.147 52.6209 109.571 53.1762C110.996 53.7314 112.519 53.9896 114.046 53.9347C116.297 53.9797 118.507 53.3333 120.379 52.0827C122.435 50.5737 124.107 48.6018 125.259 46.3266C125.27 46.2849 125.288 46.2457 125.314 46.2113C125.34 46.1769 125.372 46.1481 125.409 46.1264C125.44 46.11 125.475 46.1014 125.509 46.1014C125.544 46.1014 125.579 46.11 125.61 46.1264C125.639 46.1385 125.665 46.1593 125.683 46.186C125.701 46.2128 125.71 46.2444 125.71 46.2765C125.71 46.348 125.693 46.4184 125.66 46.4818ZM143.329 53.6929C142.207 54.4382 140.985 55.0195 139.699 55.4194C138.442 55.8029 137.135 55.9959 135.82 55.992C131.983 55.992 128.905 54.8826 126.586 52.6639C125.425 51.5333 124.515 50.1709 123.916 48.6653C123.317 47.1597 123.041 45.5448 123.108 43.9257C123.093 42.0956 123.451 40.2816 124.161 38.5948C124.871 36.9079 125.918 35.3837 127.238 34.1152C128.465 32.8023 129.95 31.7558 131.599 31.0407C133.248 30.3255 135.027 29.9571 136.824 29.9583C139.595 29.9583 141.764 30.5923 143.331 31.8603C144.047 32.3661 144.624 33.0438 145.009 33.8309C145.395 34.6181 145.576 35.4895 145.537 36.3651C145.539 36.6387 145.479 36.9092 145.362 37.1563C145.244 37.4033 145.072 37.6204 144.858 37.7912C144.3 38.1473 143.641 38.3139 142.981 38.2663H126.06C125.856 38.953 125.714 39.6566 125.636 40.3685C125.551 41.1331 125.509 41.9018 125.511 42.671C125.477 44.1726 125.76 45.6646 126.342 47.0492C126.924 48.4337 127.793 49.6795 128.89 50.705C130.045 51.7862 131.403 52.6282 132.884 53.1824C134.366 53.7365 135.943 53.9919 137.524 53.9339C140.325 53.9912 143.058 53.0721 145.255 51.3345C147.441 49.5993 149.285 46.9465 150.786 43.376C150.92 43.109 151.037 43.0004 151.137 43.0502C151.237 43.1 151.237 43.2414 151.137 43.4744C150.292 45.6095 149.164 47.6212 147.783 49.4554C146.552 51.1116 145.045 52.5438 143.329 53.6895V53.6929ZM142.226 35.6228C142.209 34.9651 142.037 34.3206 141.724 33.742C141.411 33.1635 140.965 32.6672 140.424 32.2938C139.065 31.2929 137.404 30.7894 135.719 30.8677C133.572 30.8094 131.464 31.4505 129.712 32.6942C127.992 33.9856 126.744 35.8057 126.158 37.8752C128.695 37.8752 131.589 37.8418 134.842 37.7751C138.096 37.7083 139.756 37.6753 139.825 37.6758C140.24 37.6397 140.651 37.5641 141.052 37.4502C141.33 37.3961 141.593 37.2855 141.827 37.1252C141.969 36.9397 142.072 36.7265 142.127 36.4991C142.199 36.2117 142.232 35.9163 142.227 35.6202L142.226 35.6228Z" fill="#5B5B5B"/>
<path d="M49.3374 17.2413C45.6377 17.2302 42.0118 19.0466 38.6896 21.9802C36.9026 20.7489 35.3344 19.2271 34.0499 17.478C33.7533 17.0548 33.49 16.6092 33.2626 16.1452C34.2654 16.3439 35.2955 16.3626 36.3048 16.2003C37.5204 15.9942 38.6642 15.4839 39.6296 14.7171C40.5951 13.9502 41.3509 12.9517 41.8269 11.8143C42.251 10.8893 42.3174 9.83992 42.0135 8.86875C41.8648 8.48422 41.6343 8.13671 41.3378 7.85029C41.0412 7.56388 40.6859 7.34547 40.2964 7.21024C37.7064 6.21256 33.6062 7.86687 32.2217 11.4699C31.735 12.5294 31.6173 13.7214 31.8874 14.8557C30.567 14.3627 29.3582 13.6111 28.332 12.6449C29.81 10.8989 30.5584 8.65045 30.4214 6.36695C30.3146 3.19322 29.249 1.08844 27.7143 1.00446H27.6397H27.61C26.0685 1.09862 25.0047 3.20428 24.8952 6.36358C24.7584 8.64968 25.5073 10.9007 26.9865 12.6491C25.9601 13.613 24.7519 14.3628 23.4326 14.8548C23.7028 13.7309 23.5882 12.5489 23.1069 11.4979C21.7113 7.86943 17.6137 6.21341 15.0203 7.21024C14.6308 7.34561 14.2755 7.56406 13.9788 7.85045C13.6822 8.13684 13.4513 8.48428 13.3024 8.86875C12.9989 9.85112 13.0702 10.9111 13.5025 11.844C13.9801 12.9749 14.7352 13.967 15.6981 14.7285C16.661 15.49 17.8005 15.9963 19.011 16.2003C20.0207 16.3612 21.0509 16.3426 22.0541 16.1452C21.8266 16.609 21.5637 17.0546 21.2676 17.478C20.02 19.1809 18.501 20.6673 16.7713 21.8776C13.0385 18.8184 9.22084 17.2413 6.09292 17.2413H6.00386C1.72896 17.0954 0.102657 19.207 0.00509505 21.2456C-0.119614 23.8755 2.2439 26.8286 5.95379 27.0458C8.57523 27.2528 12.9588 25.5892 16.7119 23.0085C21.5131 27.4632 25.2267 32.9615 27.5659 39.079L27.9756 40.153L28.3862 39.079C30.6658 33.1227 34.391 27.1374 38.7363 23.0975C42.4581 25.6265 46.7592 27.2477 49.3569 27.0466C53.0753 26.8278 55.4389 23.8713 55.3142 21.2456C55.2175 19.2095 53.5911 17.0826 49.3358 17.2413M6.01152 26.1686C2.81235 25.9811 0.777123 23.4929 0.881472 21.2863C0.977337 19.2824 2.71898 18.1126 5.58475 18.1126C5.71795 18.1126 5.85371 18.1125 5.99029 18.1202C9.33963 18.0778 12.8052 19.7465 16.0112 22.4078C12.4837 24.7883 8.41155 26.3434 6.01152 26.1686ZM33.0302 11.8126C34.3502 8.38012 38.0288 7.27981 39.98 8.02976C40.2518 8.12336 40.5004 8.27415 40.7089 8.47201C40.9175 8.66988 41.0811 8.91022 41.1889 9.17674C41.4125 9.93552 41.3522 10.7498 41.0192 11.4673C40.5972 12.4671 39.9311 13.3449 39.0818 14.0203C38.2325 14.6958 37.2272 15.1472 36.1581 15.3333C35.0624 15.5056 33.9428 15.4478 32.8707 15.1636C32.4926 14.0685 32.5503 12.8698 33.0319 11.816M25.7775 6.39496C25.8751 3.50119 26.7956 1.93423 27.6584 1.88078C28.522 1.92744 29.4467 3.49269 29.5426 6.40004C29.6706 8.46646 28.9962 10.5026 27.6601 12.0841C26.3251 10.5019 25.6508 8.46629 25.7775 6.40004M19.1603 15.3401C18.0963 15.1563 17.0953 14.709 16.2486 14.039C15.4019 13.3691 14.7363 12.4978 14.3127 11.5047C13.9707 10.7798 13.9052 9.95496 14.1287 9.18523C14.2362 8.91874 14.3997 8.67843 14.6081 8.48056C14.8166 8.28268 15.065 8.13186 15.3367 8.03825C15.762 7.88342 16.2119 7.80749 16.6644 7.81425C17.8982 7.85121 19.0932 8.2548 20.0967 8.97356C21.1003 9.69231 21.867 10.6937 22.2992 11.8499C22.7746 12.8956 22.8287 14.0842 22.4502 15.1687C21.3772 15.4529 20.2568 15.5107 19.1603 15.3384M27.9765 37.7352C25.6998 31.9052 22.1031 26.6821 17.4687 22.4757C19.208 21.2321 20.7357 19.7165 21.993 17.987C22.452 17.3359 22.8314 16.6321 23.123 15.8907C24.8215 15.3678 26.3745 14.4556 27.6584 13.2268C28.9427 14.4558 30.4963 15.368 32.1954 15.8907C32.4863 16.6322 32.8654 17.3361 33.3245 17.987C34.6251 19.772 36.2107 21.3306 38.0177 22.6004C33.6668 26.9027 30.2484 32.055 27.9756 37.7361M49.2984 26.1779C46.9289 26.3518 42.9187 24.8324 39.4184 22.4926C42.5064 19.8084 45.8778 18.1287 49.2501 18.1287H49.3476C52.4212 18.004 54.336 19.1968 54.4378 21.2948C54.543 23.5005 52.5069 25.9887 49.3001 26.1779" fill="#5B5B5B"/>
</svg>
